<?xml version="1.0" encoding="utf-8"?>
<svg width="700pt" height="700pt" version="1.1" viewBox="79.127 127.72 546.452 406.243" xmlns="http://www.w3.org/2000/svg">
  <g>
    <path d="m379.6 242.27c-3.1211 2.3984-6.4805 4.1992-10.199 5.6406-1.4414 0.60156-2.7617 1.3203-3.9609 2.2812l-219.96-75.602c3.3594-2.5195 5.3984-6.3594 5.7617-10.801z"/>
    <path d="m522.4 356.63c-2.3984 3.2422-5.5195 6-9 8.0391l-79.801-75c2.6406-3 5.7617-5.6406 9.1211-7.8008z"/>
    <path d="m579.64 466.67c-2.6406 1.6797-4.8008 4.082-6 7.1992-0.60156 1.5586-1.3203 3.1211-2.2812 4.5586l-21.961-56.641c2.7578-1.6797 5.0391-4.3203 6.2383-7.4414 0.60156-1.4414 1.1992-2.8789 2.0391-4.1992z"/>
    <path d="m137.44 165.47c-10.199 3.9609-18.242 12.121-22.199 22.32-0.35938 1.1992-1.4414 1.8008-2.5195 1.8008-1.082 0-2.1602-0.60156-2.6406-1.8008-3.9609-10.199-12.121-18.359-22.32-22.32-2.3984-0.83984-2.3984-4.1992 0-5.1602 10.199-3.9609 18.359-12 22.32-22.082 0.48047-1.1992 1.5586-1.8008 2.6406-1.8008s2.1602 0.60156 2.5195 1.8008c3.9609 10.082 12 18.121 22.199 22.082 2.4023 0.96094 2.4023 4.3203 0 5.1602z"/>
    <path d="m446.08 266.75c-14.762 5.7617-26.641 17.641-32.281 32.52-0.71875 1.6797-2.2812 2.6406-3.8398 2.6406-1.5586 0-3.1211-0.96094-3.8398-2.6406-5.7617-14.879-17.641-26.762-32.398-32.52-3.6016-1.3203-3.6016-6.2383 0-7.5586 14.762-5.7617 26.641-17.52 32.398-32.281 0.71875-1.8008 2.2812-2.6406 3.8398-2.6406 1.5586 0 3.1211 0.83984 3.8398 2.6406 5.6406 14.762 17.398 26.52 32.16 32.281 3.6016 1.3164 3.6016 6.2383 0.12109 7.5586z"/>
    <path d="m612.16 505.55c-10.078 3.9609-18.121 12.121-22.078 22.32-0.48047 1.1992-1.5586 1.8008-2.6406 1.8008-1.0781 0-2.1602-0.60156-2.5195-1.8008-3.9609-10.199-12.121-18.359-22.32-22.32-2.3984-0.83984-2.3984-4.1992 0-5.1602 10.199-3.9609 18.359-12 22.32-22.078 0.35938-1.1992 1.4414-1.8008 2.5195-1.8008 1.082 0 2.1602 0.60156 2.6406 1.8008 3.9609 10.078 12 18.121 22.078 22.078 2.3984 0.95703 2.3984 4.3203 0 5.1602z"/>
    <path d="m569.92 384.35c-11.641 4.5586-21 13.922-25.559 25.68-0.48047 1.4414-1.6797 2.0391-3 2.0391-1.1992 0-2.3984-0.60156-3-2.0391-4.5586-11.758-13.922-21.121-25.68-25.68-2.7617-1.0781-2.7617-4.918 0.12109-6 11.641-4.5586 21-13.801 25.559-25.441 0.60156-1.4414 1.8008-2.1602 3-2.1602 1.3203 0 2.5195 0.71875 3 2.1602 4.5586 11.641 13.918 20.879 25.559 25.441 2.7617 1.082 2.7617 4.9219 0 6z"/>
    <path d="m371.45 422.14c0 11.844-9.6016 21.445-21.445 21.445s-21.445-9.6016-21.445-21.445c0-11.848 9.6016-21.449 21.445-21.449s21.445 9.6016 21.445 21.449"/>
    <path d="m510.64 145.55c-15.121 0-27.48 12.359-27.48 27.48s12.359 27.48 27.48 27.48 27.48-12.359 27.48-27.48-12.363-27.48-27.48-27.48zm0 42.957c-8.5195 0-15.48-6.9609-15.48-15.48 0-8.5195 6.9609-15.48 15.48-15.48s15.48 6.9609 15.48 15.48c0 8.5234-6.9609 15.48-15.48 15.48z"/>
    <path d="m409.85 173.01c0 5.5352-4.4883 10.023-10.023 10.023-5.5352 0-10.02-4.4883-10.02-10.023 0-5.5352 4.4844-10.023 10.02-10.023 5.5352 0 10.023 4.4883 10.023 10.023"/>
    <path d="m267.32 320.8c0 5.5352-4.4883 10.023-10.023 10.023-5.5352 0-10.02-4.4883-10.02-10.023s4.4844-10.023 10.02-10.023c5.5352 0 10.023 4.4883 10.023 10.023"/>
  </g>
</svg>