<?xml version="1.0" encoding="utf-8"?>
<svg width="700pt" height="700pt" version="1.1" viewBox="199.034 33.814 356.612 503.104" xmlns="http://www.w3.org/2000/svg">
  <defs>
    <view id="view-1">
      <title>View 1</title>
    </view>
  </defs>
  <g>
    <path d="m255.34 342.58c0 11.844-9.6016 21.445-21.445 21.445s-21.449-9.6016-21.449-21.445c0-11.848 9.6055-21.449 21.449-21.449s21.445 9.6016 21.445 21.449"/>
    <path d="m430.66 158.73c-15.121 0-27.359 12.359-27.359 27.48s12.238 27.48 27.359 27.48 27.48-12.359 27.48-27.48c-0.003906-15.117-12.363-27.48-27.48-27.48zm0 42.961c-8.5195 0-15.359-6.9609-15.359-15.48 0-8.5195 6.8398-15.48 15.359-15.48 8.5195 0 15.48 6.9609 15.48 15.48-0.003906 8.5195-6.9609 15.48-15.48 15.48z"/>
    <path d="m467.06 297.08c0 5.5352-4.4844 10.023-10.02 10.023-5.5352 0-10.023-4.4883-10.023-10.023 0-5.5352 4.4883-10.023 10.023-10.023 5.5352 0 10.02 4.4883 10.02 10.023"/>
    <path d="m278.05 256.35c0 5.5352-4.4883 10.023-10.023 10.023s-10.02-4.4883-10.02-10.023 4.4844-10.02 10.02-10.02 10.023 4.4844 10.023 10.02"/>
    <path d="m360.7 218.62c-4.1992 1.0781-7.6797 4.0781-9.2422 8.2812-0.12109 0.24219-0.23828 0.48047-0.35938 0.71875l-33.84-99.242c0.24219-0.35938 0.48047-0.83984 0.60156-1.1992 1.8008-4.5586 4.3203-8.8789 7.4414-12.602z"/>
    <path d="m342.22 376.05-60 92.52c-1.9219-1.4414-3.4805-3.3594-4.3203-5.6406-0.71875-1.8008-1.8008-3.4805-3.1211-4.8008l60.48-93.359c2.6406 2.6406 4.8008 5.8789 6.1211 9.4805 0.23828 0.60156 0.59766 1.2031 0.83984 1.8008z"/>
    <path d="m371.74 275.02-5.5195 36.359c-2.6406-3.1211-6.7188-4.9219-11.039-4.9219h-0.35938l4.5586-30.238c1.5586 0.60156 3.2383 0.96094 4.918 0.96094 2.7617 0 5.2812-0.71875 7.4414-2.1602z"/>
    <path d="m502.18 472.3c-2.3984 3.3594-5.3984 6-9 8.1602h-0.12109l-121.08-111.72c2.2812-3.3594 5.2812-6.2383 8.8789-8.1602z"/>
    <path d="m338.98 90.336c-14.762 5.7617-26.52 17.641-32.281 32.52-0.71875 1.6797-2.2812 2.6406-3.8398 2.6406-1.5586 0-3.1211-0.96094-3.7188-2.6406-5.8789-14.879-17.758-26.762-32.52-32.52-3.4805-1.3203-3.4805-6.2383 0-7.5586 14.762-5.7617 26.641-17.52 32.52-32.281 0.60156-1.8008 2.1602-2.6406 3.7188-2.6406 1.5586 0 3.1211 0.83984 3.8398 2.6406 5.7617 14.762 17.52 26.52 32.281 32.281 3.4805 1.3203 3.4805 6.2383 0 7.5586z"/>
    <path d="m281.26 485.26c-6.7188 2.5195-12 7.918-14.52 14.641-0.35938 0.71875-1.0781 1.1992-1.8008 1.1992-0.71875 0-1.3203-0.48047-1.6797-1.1992-2.6406-6.7188-7.918-12.121-14.641-14.641-1.5586-0.71875-1.5586-2.8789 0-3.4805 6.7188-2.5195 12-7.9219 14.641-14.52 0.35938-0.83984 0.96094-1.1992 1.6797-1.1992s1.4414 0.35938 1.8008 1.1992c2.5195 6.6016 7.8008 12 14.52 14.52 1.5586 0.59766 1.5586 2.7578 0 3.4805z"/>
    <path d="m380.62 249.34c-6.7188 2.5195-12 7.918-14.641 14.641-0.23828 0.71875-0.96094 1.1992-1.6797 1.1992s-1.4414-0.48047-1.6797-1.1992c-2.6406-6.7188-8.0391-12.121-14.641-14.641-1.6797-0.60156-1.6797-2.8789 0-3.4805 6.6016-2.5195 12-7.918 14.641-14.52 0.24219-0.83984 0.96094-1.1992 1.6797-1.1992s1.4414 0.35938 1.6797 1.1992c2.6406 6.6016 7.918 12 14.52 14.52 1.6836 0.60156 1.6836 2.7617 0.12109 3.4805z"/>
    <path d="m543.7 498.46c-10.199 3.9609-18.238 12.121-22.199 22.199-0.48047 1.1992-1.5586 1.918-2.6406 1.918-0.96094 0-2.0391-0.60156-2.5195-1.8008-3.9609-10.199-12.121-18.359-22.32-22.32-2.3984-0.96094-2.3984-4.3203 0-5.2812 10.199-3.8398 18.359-12 22.32-22.078 0.48047-1.1992 1.5586-1.8008 2.5195-1.8008 1.082 0 2.1602 0.60156 2.6406 1.8008 3.9609 10.199 12 18.242 22.078 22.078 2.5195 0.96484 2.5195 4.3242 0.12109 5.2852z"/>
    <path d="m379.9 347.62c-10.078 3.9609-18.121 12.121-22.078 22.32-0.48047 1.1992-1.5586 1.8008-2.6406 1.8008-1.0781 0-2.0391-0.60156-2.5195-1.8008-3.9609-10.199-12.121-18.359-22.32-22.32-2.3984-0.96094-2.3984-4.3203 0-5.1602 10.199-3.9609 18.359-12 22.32-22.199 0.48047-1.1992 1.4414-1.8008 2.5195-1.8008 1.082 0 2.1602 0.60156 2.6406 1.8008 3.9609 10.199 12 18.238 22.078 22.199 2.3984 0.95703 2.3984 4.1992 0 5.1602z"/>
  </g>
</svg>