<?xml version="1.0" encoding="utf-8"?>
<svg width="700pt" height="700pt" version="1.1" viewBox="77.144 100.633 546.239 436.744" xmlns="http://www.w3.org/2000/svg">
  <g>
    <path d="m266.96 232.86h-25.68c0.12109 0.60156 0.12109 1.1992 0.12109 1.8008 0 3.8398-1.5586 7.4414-4.3203 9.9609l29.16 0.12109c-0.71875-1.6797-1.0781-3.4805-1.0781-5.2812-0.003906-2.4023 0.59766-4.6797 1.7969-6.6016zm53.039 16.562c-1.3203 1.1992-2.8789 2.2812-4.6797 3-2.2812 0.83984-4.1992 2.3984-5.5195 4.3203l21.719 17.16c0.24219-0.12109 0.60156-0.24219 0.83984-0.35938 3.7188-1.4414 7.082-3.7188 9.8398-6.4805zm193.92-12.48c-4.082-1.6797-7.082-4.6797-8.7617-8.3984l-112.08 46.199c3.6016 2.3984 6.1211 6 6.8398 10.199l115.2-47.52c-0.35938-0.12109-0.83984-0.36328-1.1992-0.48047zm-255.48 155.16c-1.1992 1.1992-2.6406 2.0391-4.3203 2.7578-2.2812 0.83984-4.3203 2.3984-5.7617 4.3203l109.68 84c0.23828-0.24219 0.60156-0.35938 0.96094-0.48047 3.7188-1.4414 6.9609-3.7188 9.6016-6.4805zm-126.84-175.08c-2.1602 2.3984-3.9609 5.2812-5.1602 8.3984-0.48047 1.082-0.96094 2.1602-1.5586 3.1211l92.758 137.16c1.3203-1.1992 2.2812-2.7617 2.8789-4.4414 0.96094-2.3984 2.6406-4.5586 4.6797-6zm314.88 230.88c-0.96094-2.7617-2.8789-5.0391-5.3984-6.7188l-34.199 34.199c2.6406 3.1211 6 5.5195 9.9609 7.082l31.441-31.441c-0.72266-0.96484-1.3242-2.043-1.8047-3.1211zm93.121-185.28c-0.71875-1.6797-1.4414-3.4805-2.3984-5.0391l-3.1211 7.1992-67.562 134.88c2.6406 1.5586 4.6797 3.8398 5.7617 6.8398 0.48047 1.3203 1.1992 2.5195 2.1602 3.6016l70.441-140.28 0.12109-0.12109c-2.4023-1.7969-4.3242-4.1992-5.4023-7.0781zm44.879-114.24-14.641 33.719c1.8008 4.5586 4.4414 8.7578 7.6797 12.48l16.922-39.121c-4.1992-0.71484-7.9219-3.2383-9.9609-7.0781zm-436.32 56.641c-1.5586 2.1602-3.7188 3.8398-6.3594 4.918-2.0391 0.83984-3.9609 1.8008-5.6406 3.1211l46.441 18.84c0.83984-4.3203 3.7188-7.9219 7.918-9.8398z"/>
    <path d="m590.6 225.66c-14.762 5.8789-26.52 17.758-32.16 32.52-0.71875 1.8008-2.2812 2.6406-3.8398 2.6406s-3.1211-0.83984-3.8398-2.6406c-5.7578-14.762-17.641-26.641-32.398-32.398-3.6016-1.4414-3.6016-6.3594 0-7.6797 14.762-5.7617 26.641-17.52 32.398-32.281 0.71875-1.6797 2.2812-2.6406 3.8398-2.6406s3.1211 0.96094 3.8398 2.6406c5.6406 14.762 17.398 26.52 32.16 32.281 3.6016 1.4375 3.6016 6.2383 0 7.5586z"/>
    <path d="m612.8 127.74c-6.6016 2.6406-12 7.918-14.52 14.641-0.35938 0.83984-1.0781 1.1992-1.6797 1.1992-0.71875 0-1.4414-0.35938-1.8008-1.1992-2.5195-6.7188-7.918-12-14.641-14.641-1.5586-0.60156-1.5586-2.8789 0-3.4805 6.7188-2.5195 12.121-7.918 14.641-14.52 0.35938-0.83984 1.082-1.1992 1.8008-1.1992 0.60156 0 1.3203 0.35938 1.6797 1.1992 2.5195 6.7188 7.9219 12 14.52 14.52 1.5625 0.59766 1.5625 2.8789 0 3.4805z"/>
    <path d="m386.24 289.98c-10.078 3.9609-18.121 12.121-22.078 22.199-0.48047 1.1992-1.5586 1.918-2.6406 1.918-1.0781 0-2.1602-0.60156-2.6406-1.8008-3.9609-10.199-12.121-18.359-22.199-22.32-2.3984-0.96094-2.3984-4.3203 0-5.2812 10.199-3.8398 18.238-12 22.199-22.078 0.48047-1.1992 1.5586-1.8008 2.6406-1.8008s2.1602 0.60156 2.6406 1.8008c3.8398 10.199 12 18.238 22.078 22.078 2.3984 0.96484 2.3984 4.3242 0 5.2852z"/>
    <path d="m137.36 198.78c-10.082 3.9609-18.121 12.121-22.082 22.32-0.48047 1.1992-1.5586 1.8008-2.6406 1.8008s-2.0391-0.60156-2.5195-1.8008c-3.9609-10.199-12.121-18.359-22.32-22.32-2.3984-0.96094-2.3984-4.3203 0-5.1602 10.199-3.9609 18.359-12 22.32-22.199 0.48047-1.1992 1.4414-1.8008 2.5195-1.8008 1.082 0 2.1602 0.60156 2.6406 1.8008 3.9609 10.199 12 18.238 22.082 22.199 2.3984 0.83984 2.3984 4.1992 0 5.1602z"/>
    <path d="m412.88 499.02c-10.082 3.9609-18.238 12.121-22.082 22.32-0.48047 1.1992-1.5586 1.8008-2.6406 1.8008s-2.1602-0.60156-2.6406-1.8008c-3.9609-10.199-12.121-18.359-22.32-22.32-2.3984-0.83984-2.3984-4.1992 0.12109-5.1602 10.078-3.9609 18.238-12 22.199-22.078 0.48047-1.1992 1.5586-1.8008 2.6406-1.8008 1.0781 0 2.1602 0.60156 2.6406 1.8008 3.8398 10.078 11.879 18.121 22.082 22.078 2.3984 0.96094 2.3984 4.3203 0 5.1602z"/>
    <path d="m475.64 428.82c-6.6016 2.6406-11.879 8.0391-14.52 14.641-0.23828 0.83984-0.96094 1.1992-1.6797 1.1992s-1.4414-0.35938-1.6797-1.1992c-2.6406-6.6016-8.0391-12-14.762-14.641-1.5586-0.60156-1.5586-2.7578 0-3.3594 6.7188-2.6406 12.121-7.9219 14.762-14.641 0.24219-0.71875 0.96094-1.0781 1.6797-1.0781s1.4414 0.35937 1.6797 1.0781c2.6406 6.7188 7.9219 12 14.52 14.641 1.6797 0.59766 1.6797 2.7578 0 3.3594z"/>
    <path d="m249.68 383.7c-6.6016 2.5195-11.879 7.9219-14.52 14.641-0.23828 0.71875-0.96094 1.1992-1.6797 1.1992s-1.4414-0.48047-1.6797-1.1992c-2.6406-6.7188-8.0391-12.121-14.758-14.641-1.5586-0.60156-1.5586-2.8789 0-3.4805 6.7188-2.5195 12.121-7.9219 14.758-14.52 0.24219-0.83984 0.96094-1.1992 1.6797-1.1992s1.4414 0.35938 1.6797 1.1992c2.6406 6.6016 7.918 12 14.52 14.52 1.6836 0.60156 1.6836 2.7617 0 3.4805z"/>
    <path d="m311 241.14c-6.6016 2.6406-12 8.0391-14.52 14.762-0.35937 0.71875-1.082 1.0781-1.8008 1.0781-0.60156 0-1.3203-0.35938-1.6797-1.0781-2.6406-6.7188-7.9219-12.121-14.641-14.762-1.5586-0.60156-1.5586-2.7578 0-3.3594 6.7188-2.6406 12-7.9219 14.641-14.52 0.35938-0.83984 1.0781-1.1992 1.6797-1.1992 0.71875 0 1.4414 0.35938 1.8008 1.1992 2.5195 6.6016 7.918 11.879 14.52 14.52 1.5625 0.59766 1.5625 2.7578 0 3.3594z"/>
    <path d="m228.2 236.34c-6.7188 2.6406-12 7.918-14.52 14.641-0.35938 0.83984-1.0781 1.1992-1.8008 1.1992-0.71875 0-1.3203-0.35938-1.6797-1.1992-2.6406-6.6016-7.9219-12-14.641-14.641-1.5586-0.60156-1.5586-2.7617 0-3.3594 6.7188-2.6406 12-7.918 14.641-14.641 0.35938-0.71875 0.96094-1.1992 1.6797-1.1992s1.4414 0.48047 1.8008 1.1992c2.5195 6.7188 7.8008 12 14.52 14.641 1.5586 0.59766 1.5586 2.7617 0 3.3594z"/>
    <path d="m397.4 176.34c-6.8398-2.6406-14.281-2.6406-21 0.23828s-12 8.2812-14.758 15c-2.6406 6.8398-2.6406 14.281 0.23828 21 2.8789 6.8398 8.2812 12 15.121 14.762 3.2383 1.3203 6.7188 1.918 10.078 1.918 10.922 0 21.238-6.4805 25.559-17.16 5.6406-14.039-1.1992-30.117-15.238-35.758zm4.0781 31.199c-1.5586 3.8398-4.4414 6.8398-8.2812 8.5195-3.7188 1.6797-7.9219 1.6797-11.758 0.12109-3.8398-1.5586-6.8398-4.4414-8.5195-8.2812-1.5586-3.8398-1.6797-7.9219-0.12109-11.762 1.5586-3.8398 4.4414-6.8398 8.2812-8.5195 1.9219-0.83984 3.9609-1.1992 6.1211-1.1992 1.918 0 3.8398 0.35938 5.7578 1.082 6 2.5195 9.6016 8.2812 9.6016 14.398 0 1.8008-0.35938 3.8438-1.082 5.6406z"/>
    <path d="m294.31 160.58c0 5.5352-4.4883 10.023-10.023 10.023-5.5352 0-10.023-4.4883-10.023-10.023 0-5.5352 4.4883-10.023 10.023-10.023 5.5352 0 10.023 4.4883 10.023 10.023"/>
    <path d="m254.85 456.57c0 11.844-9.6016 21.449-21.445 21.449-11.848 0-21.449-9.6055-21.449-21.449s9.6016-21.445 21.449-21.445c11.844 0 21.445 9.6016 21.445 21.445"/>
    <path d="m167.49 376.49c0 5.5352-4.4883 10.023-10.023 10.023s-10.023-4.4883-10.023-10.023c0-5.5352 4.4883-10.023 10.023-10.023s10.023 4.4883 10.023 10.023"/>
  </g>
</svg>