<?xml version="1.0" encoding="utf-8"?>
<svg version="1.1" viewBox="82.899 67.066 527.264 430.534" xmlns="http://www.w3.org/2000/svg">
  <g>
    <path d="m528.19 83.777h-356.38c-1.5117 0-3.0234 0.61719-4.0898 1.7344-44.965 47.434-69.719 109.65-69.719 175.17 0 87.586 44.016 167.83 117.82 214.65 0.89453 0.55859 1.9609 0.89453 3.0234 0.89453h262.41c1.0625 0 2.1289-0.28125 3.0234-0.89453 73.699-46.762 117.71-127.01 117.71-214.65 0-65.52-24.754-127.73-69.777-175.17-1.0078-1.1211-2.5195-1.7344-4.0312-1.7344zm-48.605 381.25h-259.17c-16.465-10.641-31.359-23.016-44.52-36.848h348.16c-13.164 13.832-28.004 26.207-44.465 36.848zm-230.89-50.121c0.11328-0.44922 0.28125-0.89453 0.44922-1.3438 0.11328-0.28125 0.16797-0.55859 0.28125-0.83984 0.22266-0.44922 0.50391-0.95312 0.72656-1.3984 0.16797-0.22266 0.22266-0.50391 0.39062-0.72656 0.44922-0.67188 0.95312-1.3438 1.5664-2.0156 4.4805-4.8711 12.039-7.7852 20.16-7.7852 12.77 0 23.574 7.3906 23.91 16.184h-47.77c0-0.39062 0.054688-0.78516 0.11328-1.1211 0.11719-0.33594 0.11719-0.61719 0.17187-0.95312zm-9.5742-6.6055c-0.16797 0.33594-0.28125 0.67188-0.39062 1.0078-0.33594 0.95312-0.67188 1.9609-0.89453 2.9688-0.054688 0.33594-0.16797 0.67187-0.22266 1.0078-0.22266 1.2305-0.39062 2.4648-0.39062 3.6953h-47.434c-0.054687-0.44922-0.11328-0.89453-0.11328-1.457 0-10.641 12.824-19.656 28-19.656 9.4062 0 18.145 3.4141 23.297 8.9023-0.73438 1.1211-1.3477 2.3555-1.8516 3.5312zm107.29-4.1445h6.6641c8.2305 0 15.176 5.375 17.586 12.824h-41.832c2.3516-7.4492 9.3516-12.824 17.582-12.824zm187.66 12.824h-8.2305c0.16797-6.6094 1.3438-17.922 7.168-24.977 1.9609-2.4062 1.625-5.9375-0.78516-7.8945-2.4062-1.9609-5.9375-1.625-7.8945 0.78516-7.9531 9.6875-9.5195 24.023-9.6875 32.09h-2.0703c-0.39062-7.6719-1.9023-21.281-7.9531-30.129-1.7344-2.5742-5.207-3.2461-7.7852-1.5117-2.5742 1.7344-3.2461 5.207-1.5117 7.7852 4.1445 6.1055 5.6016 16.742 5.9922 23.855h-10.023l-2.9102-17.414c-0.50391-3.0234-3.3594-5.1523-6.4414-4.5938-3.0234 0.50391-5.0977 3.4141-4.5938 6.4414l2.5742 15.625h-8.0078c-0.55859-5.2656-0.95312-16.406 3.8086-24.023 1.625-2.6328 0.83984-6.0469-1.793-7.7266-2.5742-1.625-6.0469-0.83984-7.7266 1.793-6.2148 9.9102-6.1602 22.902-5.543 29.961h-2.4648c-0.33594-4.7031-0.55859-14 2.1289-23.688 0.83984-2.9688-0.95312-6.0469-3.9219-6.8867-2.9688-0.78516-6.0469 0.89453-6.8867 3.9219-2.9688 10.754-2.9102 20.887-2.5742 26.656h-4.4258c-0.39062-7.4492-1.9023-21.727-7.7852-28.055-2.1289-2.2383-5.6562-2.3516-7.8945-0.28125-2.2383 2.1289-2.3516 5.6562-0.28125 7.8945 2.6875 2.8555 4.2578 12.656 4.7617 20.383l-9.0742-0.011719c2.3516-3.7539 4.4258-8.0078 4.4258-11.48 0-3.0234-2.3516-5.2656-5.375-5.375-2.9688-0.16797-5.6016 2.3516-5.8242 5.3203-0.16797 1.7344-3.4141 7.1133-6.9453 11.535h-3.8633c-1.793-5.543-4.9297-16.406-4.3672-24.809 0.22266-3.0781-2.1289-5.7695-5.207-5.9375-3.0234-0.16797-5.7695 2.1289-5.9375 5.207-0.55859 8.6797 1.793 18.762 3.8086 25.535h-10.754c-2.6328-13.664-14.672-24.023-29.062-24.023h-6.6641c-1.8477 0-3.6953 0.22266-5.4336 0.55859 1.1758-13.047 3.7539-17.414 3.9766-17.809 1.8477-2.3516 1.5664-5.7109-0.72656-7.6719-2.2969-2.0703-5.8789-1.793-7.8945 0.50391-1.2891 1.457-5.2656 7.3906-6.7188 25.703-3.0781-5.8242-8.6797-13.777-18.312-19.543-2.6328-1.5664-6.1055-0.72656-7.6719 1.9023-1.5664 2.6328-0.72656 6.1055 1.9023 7.6719 12.656 7.6172 16.465 20.383 16.52 20.664 0.054688 0.16797 0.16797 0.33594 0.22266 0.50391-2.4062 3.4141-4.1992 7.2812-4.9844 11.535l-9.9102 0.007812c-0.28125-15.121-15.902-27.383-35.113-27.383-8.793 0-17.191 2.6328-23.574 7.2227-7.2812-7.5586-18.594-12.152-31.078-12.152-9.0156 0-17.305 2.4062-23.91 6.4414l-14.559-19.602 19.938-15.625c4.3672-3.4141 6.832-8.5117 6.832-14.055v-0.55859c0.11328-0.054687 0.16797-0.054687 0.28125-0.11328l17.977-9.6328c2.7422-1.457 3.7539-4.8711 2.2969-7.5586-1.457-2.7422-4.8711-3.7539-7.5586-2.2969l-12.938 6.9453v-23.801c0-3.0781-2.5195-5.6016-5.6016-5.6016-3.0781 0-5.6016 2.5195-5.6016 5.6016v37.07c0 2.0703-0.95312 3.9766-2.5742 5.207l-19.32 15.121c-0.33594-1.1211-0.55859-2.2969-0.28125-3.4727l6.0469-27.047c1.5664-6.832-1.0625-14-6.7188-18.199l-38.191-28.617c-2.4648-1.8477-5.9922-1.3438-7.8398 1.1211-1.8477 2.4648-1.3438 5.9922 1.1211 7.8398l38.191 28.617c2.0703 1.5664 3.0781 4.1992 2.5195 6.7773l-6.0469 27.047c-1.1211 5.0977 0 10.359 3.0781 14.559l20.383 27.441c-4.1992 4.9297-6.6641 10.863-6.6641 17.191 0 0.50391 0.054688 0.95312 0.11328 1.457h-12.656c-36.297-43.012-56.793-97.891-56.793-156.24 0-61.824 23.07-120.62 65.016-165.7h351.51c42 45.137 65.074 103.88 65.074 165.7 0 58.352-20.496 113.23-56.73 156.3z"/>
    <path d="m169.62 154.95c-10.922 0-19.77 8.8477-19.77 19.77s8.8477 19.77 19.77 19.77 19.77-8.8477 19.77-19.77c-0.003906-10.922-8.8516-19.77-19.77-19.77zm0 28.336c-4.7031 0-8.5664-3.8633-8.5664-8.5664s3.8633-8.5664 8.5664-8.5664 8.5664 3.8633 8.5664 8.5664-3.8086 8.5664-8.5664 8.5664z"/>
    <path d="m191.52 111.72c-10.922 0-19.77 8.8477-19.77 19.77s8.8477 19.77 19.77 19.77 19.77-8.8477 19.77-19.77-8.8477-19.77-19.77-19.77zm0 28.336c-4.7031 0-8.5664-3.8633-8.5664-8.5664s3.8633-8.5664 8.5664-8.5664 8.5664 3.8633 8.5664 8.5664c0.003906 4.7031-3.8047 8.5664-8.5664 8.5664z"/>
    <path d="m506.86 114.57c-10.922 0-19.77 8.8477-19.77 19.77s8.8477 19.77 19.77 19.77 19.77-8.8477 19.77-19.77c0-10.918-8.8477-19.77-19.77-19.77zm0 28.336c-4.7031 0-8.5664-3.8633-8.5664-8.5664s3.8633-8.5664 8.5664-8.5664 8.5664 3.8633 8.5664 8.5664c0.003906 4.7031-3.8047 8.5664-8.5664 8.5664z"/>
    <path d="m465.3 237.72c-6.6094-6.6094-15.457-3.8633-21.953-1.9023-5.543 1.6797-9.0703 2.6328-10.809 0.89453-1.7344-1.7344-0.83984-5.207 0.89453-10.754 1.9609-6.4961 4.6484-15.344-1.9023-21.953-6.5508-6.6094-15.457-3.8633-21.953-1.9023-5.543 1.6797-9.0703 2.5742-10.754 0.89453-1.7344-1.7344-0.83984-5.207 0.89453-10.754 1.793-5.9375 4.1445-13.887-0.55859-20.273 0.78516-2.5742 1.2891-5.2656 1.2891-8.0078 0-7.5039-2.9102-14.559-8.2305-19.824-0.95312-0.95312-1.9023-1.793-2.9688-2.5195-34.832-31.977-88.258-30.801-121.74 2.6328-16.633 16.633-25.816 38.695-25.816 62.215 0 23.465 9.1289 45.586 25.535 61.938 0.33594 0.33594 8.0078 8.8477 19.488 9.1836h0.72656c5.7695 0 11.312-2.1289 16.52-6.1602-0.28125 1.0625-0.61719 2.2383-1.0078 3.5859-1.9609 6.4961-4.6484 15.344 1.9023 21.953 6.6094 6.6094 15.457 3.8633 21.953 1.9023 5.543-1.6797 9.0156-2.6328 10.754-0.89453 1.7344 1.7344 0.83984 5.207-0.89453 10.754-1.9609 6.4961-4.6484 15.344 1.9023 21.953 6.6094 6.6094 15.457 3.9219 21.953 1.9023 5.543-1.6797 9.0703-2.6328 10.754-0.89453 1.7344 1.7344 0.83984 5.207-0.83984 10.754-1.9609 6.4961-4.6484 15.344 1.9609 21.953 1.1211 1.0625 2.5195 1.625 3.9766 1.625 1.457 0 2.8555-0.55859 3.9766-1.625 2.1836-2.1836 2.1836-5.7109 0-7.9531-1.7344-1.7344-0.83984-5.207 0.83984-10.754 1.9609-6.4961 4.6484-15.344-1.9609-21.953s-15.457-3.9219-21.953-1.9023c-5.543 1.6797-9.0703 2.5742-10.754 0.89453-1.7344-1.7344-0.83984-5.207 0.89453-10.754 1.9609-6.4961 4.6484-15.344-1.9023-21.953-6.6094-6.6094-15.457-3.8633-21.953-1.9023-5.543 1.6797-9.0703 2.5742-10.754 0.89453-1.7344-1.7344-0.83984-5.207 0.89453-10.754 1.6797-5.6016 3.9219-12.938 0.28125-19.098 1.457-3.4727 2.2969-7.168 2.2969-10.977 7 0 13.719-2.6875 18.984-7.5039-0.28125 0.95312-0.50391 1.9023-0.83984 2.9688-1.9609 6.4961-4.6484 15.344 1.9023 21.953 6.6094 6.6094 15.512 3.8633 21.953 1.9023 5.543-1.6797 9.0156-2.6328 10.754-0.89453 1.7344 1.7344 0.83984 5.207-0.89453 10.754-1.9609 6.4961-4.6484 15.344 1.9023 21.953 6.6094 6.6094 15.512 3.9219 21.953 1.9023 5.543-1.6797 9.0703-2.5742 10.754-0.89453 1.7344 1.7344 0.83984 5.207-0.83984 10.809-1.9609 6.4961-4.6484 15.344 1.9609 21.953 1.1211 1.1211 2.5195 1.625 3.9766 1.625 1.457 0 2.8555-0.55859 3.9766-1.625 2.1836-2.1836 2.1836-5.7109 0-7.8945-1.7344-1.7344-0.83984-5.207 0.83984-10.809 1.9609-6.4961 4.6484-15.344-1.9609-21.953-6.6094-6.6094-15.512-3.8633-21.953-1.9023-5.543 1.6797-9.0703 2.5742-10.754 0.89453-1.7344-1.7344-0.83984-5.207 0.89453-10.754 1.9609-6.4961 4.6484-15.344-1.9023-21.953-6.6094-6.5508-15.457-3.8633-21.953-1.9023-5.543 1.6797-9.0703 2.6328-10.754 0.89453-1.7344-1.7344-0.83984-5.207 0.89453-10.754 1.9023-6.2734 4.4258-14.727-1.3438-21.223 0.39062-1.793 0.55859-3.6953 0.55859-5.543 6.2734 0 12.266-2.1836 17.246-6.1055-0.28125 1.0625-0.61719 2.1289-1.0078 3.4141-1.9609 6.4961-4.6484 15.344 1.9023 21.953 6.6094 6.6094 15.457 3.8633 21.953 1.9023 5.543-1.6797 9.0156-2.5742 10.754-0.89453 1.7344 1.7344 0.83984 5.207-0.89453 10.754-1.9609 6.4961-4.6484 15.344 1.9023 21.953 6.6094 6.6094 15.457 3.8633 21.953 1.9023 5.543-1.6797 9.0703-2.5742 10.754-0.89453 1.7344 1.7344 0.83984 5.207-0.83984 10.754-1.9609 6.4961-4.6484 15.344 1.9609 21.953 1.1211 1.1211 2.5195 1.625 3.9766 1.625 1.457 0 2.8555-0.55859 3.9766-1.625 2.1836-2.1836 2.1836-5.7109 0-7.8945-1.7344-1.7344-0.83984-5.207 0.83984-10.809 1.9609-6.4961 4.6484-15.344-1.9609-21.953s-15.512-3.8633-21.953-1.9023c-5.543 1.6797-9.0703 2.5742-10.754 0.89453-1.7344-1.7344-0.83984-5.207 0.89453-10.754 1.9609-6.4961 4.6484-15.344-1.9023-21.953-6.6094-6.5508-15.457-3.8633-21.953-1.9023-5.543 1.6797-9.0703 2.6328-10.754 0.89453-1.7344-1.7344-0.83984-5.207 0.89453-10.754 1.793-5.8789 4.0898-13.719-0.39062-20.047 0.89453-2.7422 1.457-5.6016 1.457-8.5117 6.3828 0 12.543-2.2969 17.586-6.3828-0.28125 1.0078-0.55859 2.1289-0.95312 3.3047-1.9609 6.4961-4.6484 15.344 1.9023 21.953 6.6094 6.6094 15.457 3.8633 21.953 1.9023 5.543-1.6797 9.0703-2.6328 10.754-0.89453 1.7344 1.7344 0.83984 5.207-0.89453 10.754-1.9609 6.4961-4.6484 15.344 1.9023 21.953 6.6094 6.6094 15.457 3.9219 21.953 1.9023 5.543-1.6797 9.0703-2.5742 10.754-0.89453 1.7344 1.7344 0.83984 5.207-0.83984 10.754-1.9609 6.4961-4.6484 15.344 1.9609 21.953 1.1211 1.0625 2.5195 1.625 3.9766 1.625 1.457 0 2.8555-0.55859 3.9766-1.625 2.1836-2.1836 2.1836-5.7109 0-7.9531-1.7344-1.7344-0.83984-5.207 0.83984-10.754 1.9023-6.6094 4.5898-15.457-2.0156-22.066zm-97.891-57.68c-2.0156-0.61719-4.1445-0.054687-5.6016 1.3984-1.457 1.457-2.0156 3.5859-1.3984 5.6016 1.793 5.9922 0.22266 12.434-4.1992 16.855-4.4258 4.4258-10.863 6.0469-16.855 4.1992-1.9609-0.61719-4.1445-0.054688-5.6016 1.3984-1.457 1.457-2.0156 3.5859-1.3984 5.6016 1.793 5.9922 0.22266 12.434-4.1992 16.855-4.4258 4.4258-10.863 6.0469-16.855 4.1992-2.0156-0.61719-4.1445-0.054688-5.6016 1.3984-1.457 1.457-2.0156 3.5859-1.3984 5.6016 1.793 5.9922 0.22266 12.434-4.1992 16.855-4.2578 4.2578-8.457 6.3281-12.938 6.3281-6.6094-0.16797-11.535-5.4336-11.762-5.6562-14.504-14.504-22.512-33.77-22.512-54.266s8.0078-39.762 22.512-54.266c15.062-15.008 34.664-22.566 54.32-22.566 18.648 0 37.297 6.7773 52.078 20.441 0.16797 0.16797 0.33594 0.28125 0.44922 0.39062 0.67188 0.50391 1.3438 1.0078 1.9609 1.625 3.1914 3.1914 4.9297 7.4492 4.9297 11.93 0 4.4805-1.7344 8.7344-4.9297 11.93-4.3672 4.3711-10.863 5.9922-16.801 4.1445z"/>
  </g>
</svg>