<?xml version="1.0" encoding="utf-8"?>
<svg width="700pt" height="700pt" version="1.1" viewBox="72.848 49.222 549.826 469.354" xmlns="http://www.w3.org/2000/svg">
  <g>
    <path d="m447.85 216.16c-14.762 5.7617-26.52 17.641-32.281 32.398-0.60156 1.8008-2.1602 2.6406-3.7188 2.6406s-3.1211-0.83984-3.8398-2.6406c-5.7617-14.758-17.641-26.641-32.52-32.398-3.4805-1.4414-3.4805-6.2383 0.12109-7.6797 14.758-5.6406 26.641-17.52 32.398-32.281 0.71875-1.6797 2.2812-2.5195 3.8398-2.6406 1.5586 0 3.1211 0.96094 3.7188 2.6406 5.7617 14.762 17.52 26.641 32.281 32.281 3.4805 1.4414 3.6016 6.2422 0 7.6797z"/>
    <path d="m501.97 426.41c-10.199 3.9609-18.238 12.121-22.199 22.32-0.48047 1.1992-1.5586 1.8008-2.5195 1.8008-1.0781 0-2.1602-0.60156-2.6406-1.8008-3.9609-10.199-12.121-18.359-22.32-22.32-2.3984-0.96094-2.3984-4.3203 0-5.1602 10.199-3.9609 18.359-12 22.32-22.199 0.48047-1.1992 1.5586-1.8008 2.6406-1.8008 0.96094 0 2.0391 0.60156 2.5195 1.8008 3.9609 10.199 12 18.242 22.199 22.199 2.3984 0.96094 2.3984 4.1992 0 5.1602z"/>
    <path d="m286.33 408.16c-10.199 3.9609-18.238 12.121-22.199 22.32-0.48047 1.1992-1.4414 1.8008-2.5195 1.8008-1.082 0-2.1602-0.60156-2.6406-1.8008-3.9609-10.199-12.121-18.359-22.32-22.32-2.3984-0.96094-2.3984-4.1992 0-5.1602 10.199-3.9609 18.359-12 22.32-22.078 0.48047-1.1992 1.5586-1.8008 2.6406-1.8008 1.0781 0 2.0391 0.60156 2.5195 1.8008 3.9609 10.078 12 18.121 22.199 22.078 2.4023 0.96094 2.4023 4.2031 0 5.1602z"/>
    <path d="m147.85 268.12c-10.082 3.9609-18.121 12-22.082 22.199-0.48047 1.1992-1.5586 1.8008-2.6406 1.8008-0.96094 0-2.0391-0.60156-2.5195-1.8008-3.9609-10.199-12.121-18.238-22.32-22.199-2.3984-0.96094-2.3984-4.3203 0-5.2812 10.199-3.9609 18.359-12 22.32-22.078 0.48047-1.1992 1.5586-1.8008 2.5195-1.8008 1.082 0 2.1602 0.60156 2.6406 1.8008 3.9609 10.078 12 18.121 22.082 22.078 2.4023 0.96094 2.5195 4.3203 0 5.2812z"/>
    <path d="m612.25 233.93c-10.199 3.9609-18.238 12.121-22.199 22.199-0.48047 1.3203-1.5586 1.918-2.5195 1.918-1.0781 0-2.1602-0.60156-2.6406-1.8008-3.9609-10.199-12.121-18.359-22.32-22.32-2.3984-0.96094-2.3984-4.3203 0-5.1602 10.199-3.9609 18.359-12 22.32-22.199 0.48047-1.1992 1.5586-1.8008 2.6406-1.8008 0.96094 0 2.0391 0.60156 2.5195 1.8008 3.9609 10.199 12 18.242 22.199 22.199 2.3984 0.84375 2.3984 4.2031 0 5.1641z"/>
    <path d="m452.65 354.16c-6.6016 2.6406-11.879 7.9219-14.52 14.641-0.23828 0.83984-0.96094 1.1992-1.6797 1.1992s-1.4414-0.35938-1.8008-1.1992c-2.5195-6.7188-7.918-12-14.641-14.641-1.5586-0.60156-1.5586-2.7578 0-3.3594 6.7188-2.6406 12.121-7.9219 14.641-14.641 0.35937-0.71875 1.082-1.1992 1.8008-1.1992s1.3203 0.48047 1.6797 1.1992c2.6406 6.7188 7.9219 12 14.52 14.641 1.5586 0.60156 1.6797 2.7617 0 3.3594z"/>
    <path d="m119.77 344.45c-6.6016 2.6406-11.879 7.9219-14.52 14.641-0.23828 0.83984-0.96094 1.1992-1.6797 1.1992s-1.4414-0.35938-1.6797-1.1992c-2.6406-6.6016-8.0391-12-14.762-14.641-1.5586-0.60156-1.5586-2.7617 0.12109-3.3594 6.6016-2.6406 12-7.9219 14.641-14.641 0.23828-0.71875 0.96094-1.1992 1.6797-1.1992s1.4414 0.48047 1.6797 1.1992c2.6406 6.7188 7.9219 12 14.52 14.641 1.6797 0.59766 1.6797 2.7578 0 3.3594z"/>
    <path d="m192.73 219.41c-6.6016 2.5195-12 7.918-14.52 14.641-0.35938 0.71875-1.082 1.1992-1.6797 1.1992-0.71875 0-1.4414-0.48047-1.8008-1.1992-2.6406-6.7188-7.9219-12.121-14.641-14.641-1.5586-0.71875-1.5586-2.8789 0-3.4805 6.7188-2.5195 12.121-7.9219 14.641-14.52 0.35938-0.83984 1.0781-1.1992 1.8008-1.1992 0.60156 0 1.3203 0.35938 1.6797 1.1992 2.5195 6.6016 7.918 12 14.52 14.52 1.5586 0.59766 1.5586 2.7578 0 3.4805z"/>
    <path d="m292.09 289.84c-6.6016 2.5195-11.879 7.9219-14.52 14.641-0.24219 0.71875-0.96094 1.1992-1.6797 1.1992s-1.4414-0.48047-1.6797-1.1992c-2.6406-6.7188-8.0391-12.121-14.762-14.641-1.5586-0.60156-1.5586-2.8789 0.12109-3.4805 6.6016-2.5195 12-7.9219 14.641-14.52 0.24219-0.83984 0.96094-1.1992 1.6797-1.1992s1.4414 0.35938 1.6797 1.1992c2.6406 6.6016 7.918 12 14.52 14.52 1.6797 0.60156 1.6797 2.8828 0 3.4805z"/>
    <path d="m295.33 211.48c-6.7188 2.5195-12 7.918-14.52 14.641-0.35938 0.71875-1.0781 1.1992-1.8008 1.1992-0.71875 0-1.3203-0.48047-1.6797-1.1992-2.6406-6.7188-7.9219-12.121-14.641-14.641-1.5586-0.60156-1.5586-2.8789 0-3.4805 6.7188-2.5195 12-7.918 14.641-14.52 0.35938-0.83984 0.96094-1.1992 1.6797-1.1992s1.4414 0.35938 1.8008 1.1992c2.5195 6.6016 7.8008 12 14.52 14.52 1.5625 0.60156 1.5625 2.8789 0 3.4805z"/>
    <path d="m324.37 116.68c-6.7188 2.6406-12 8.0391-14.641 14.641-0.23828 0.83984-0.96094 1.1992-1.6797 1.1992s-1.4414-0.35938-1.6797-1.1992c-2.6406-6.6016-8.0391-12-14.641-14.641-1.6797-0.60156-1.6797-2.7578 0-3.3594 6.6016-2.6406 12-7.918 14.641-14.641 0.24219-0.71875 0.96094-1.1992 1.6797-1.1992s1.4414 0.48047 1.6797 1.1992c2.6406 6.7188 7.918 12 14.52 14.641 1.6836 0.60156 1.6836 2.7617 0.12109 3.3594z"/>
    <path d="m190.57 78.285c-6.7188 2.5195-12 7.9219-14.641 14.641-0.24219 0.71875-0.96094 1.1992-1.6797 1.1992s-1.4414-0.48047-1.6797-1.1992c-2.6406-6.7188-8.0391-12.121-14.641-14.641-1.6797-0.71875-1.6797-2.8789 0-3.4805 6.6016-2.6406 12-7.9219 14.641-14.52 0.23828-0.83984 0.96094-1.1992 1.6797-1.1992s1.4414 0.35937 1.6797 1.1992c2.6406 6.6016 7.9219 12 14.641 14.52 1.5586 0.60156 1.5586 2.7617 0 3.4805z"/>
    <path d="m281.41 490.25c-6.7188 2.6406-12 7.918-14.641 14.641-0.24219 0.83984-0.96094 1.1992-1.6797 1.1992s-1.4414-0.35938-1.6797-1.1992c-2.6406-6.6016-7.918-12-14.641-14.641-1.5586-0.60156-1.5586-2.7578 0-3.3594 6.7188-2.6406 12-7.918 14.641-14.641 0.24219-0.71875 0.96094-1.1992 1.6797-1.1992s1.4414 0.48047 1.6797 1.1992c2.6406 6.7188 7.918 12 14.641 14.641 1.5586 0.59766 1.5586 2.7578 0 3.3594z"/>
    <path d="m554.89 314.93c-6.6016 2.6406-11.879 7.918-14.52 14.641-0.24219 0.83984-0.96094 1.1992-1.6797 1.1992s-1.4414-0.35938-1.6797-1.1992c-2.6406-6.6016-8.0391-12-14.641-14.641-1.6797-0.60156-1.6797-2.7617 0-3.3594 6.6016-2.6406 12-7.918 14.641-14.641 0.23828-0.71875 0.96094-1.1992 1.6797-1.1992s1.4414 0.48047 1.6797 1.1992c2.6406 6.7188 7.9219 12 14.52 14.641 1.6797 0.59766 1.6797 2.7578 0 3.3594z"/>
    <path d="m487.69 113.21c-6.6016 2.6406-12 8.0391-14.52 14.641-0.35938 0.83984-1.082 1.1992-1.8008 1.1992-0.60156 0-1.3203-0.35938-1.6797-1.1992-2.6406-6.6016-7.918-12-14.641-14.641-1.5586-0.60156-1.5586-2.7617 0-3.3594 6.7188-2.6406 12-7.918 14.641-14.641 0.35938-0.71875 1.082-1.082 1.6797-1.082 0.71875 0 1.4414 0.35938 1.8008 1.1992 2.5195 6.6016 7.918 11.879 14.52 14.52 1.5625 0.60156 1.5625 2.7617 0 3.3633z"/>
    <path d="m465.25 139.61c-3-1.4414-5.5195-4.0781-6.7188-7.3203-0.35938-0.83984-0.83984-1.8008-1.3203-2.5195l-27.359 48.238c2.0391 3.8398 4.8008 7.1992 7.918 10.082z"/>
    <path d="m437.89 236.45c-3.1211 2.8789-5.8789 6.2422-7.9219 10.082l26.281 42.359-12.238 36.359c2.3984 1.5586 4.1992 3.8398 5.2812 6.6016 0.83984 1.9219 1.918 3.7188 3.4805 5.0391l13.801-41.281 43.078 13.922c1.1992-4.082 4.1992-7.5586 8.3984-9.2422 0.24219-0.12109 0.48047-0.24219 0.71875-0.35938l-52.082-16.801z"/>
    <path d="m567.73 251.32c-2.6406-2.6406-5.8789-4.8008-9.4805-6.2383-0.83984-0.35938-1.5586-0.71875-2.2812-1.082l-28.801 15.121c-2.3984 1.1992-3.6016 3.9609-3.1211 6.6016l4.918 21.961c2.6406-2.5195 6-3.9609 9.7188-3.9609 0.60156 0 1.082 0 1.6797 0.12109l-3.6016-16.32z"/>
    <path d="m449.29 373.12c-1.4414 3.7188-4.1992 6.4805-7.6797 7.8008l13.199 25.199c3.4805-2.6406 6.3594-6.2383 8.1602-10.32l-12.84-24.359c-0.35938 0.48047-0.60156 1.0781-0.83984 1.6797z"/>
    <path d="m245.05 429.64c-2.1602-3.3594-5.1602-6.2383-8.6406-8.2812l-31.078 26.641-78.48-93.84c-0.72266 0.60156-1.6797 1.082-2.6406 1.4414-3 1.1992-5.3984 3.2422-6.8398 6l82.68 98.879c0.60156 0.71875 1.4414 1.3203 2.2812 1.5586l0.96094 0.35938 37.199 15.602c1.1992-0.96094 2.5195-1.8008 3.9609-2.3984 3-1.0781 5.3984-3.2383 6.9609-6l-35.52-14.879z"/>
    <path d="m109.45 294.64c-0.83984-2.0391-1.8008-3.9609-3.1211-5.6406l-7.3203 24.961c1.4414-0.48047 3-0.71875 4.5586-0.71875 2.7617 0 5.2812 0.83984 7.4414 2.1602l4.0781-13.68c-2.5156-1.6836-4.5586-4.082-5.6367-7.082z"/>
    <path d="m150.61 250.84 13.68-10.918c-0.24219-0.48047-0.48047-0.96094-0.71875-1.5586-1.3203-3.3594-3.8398-6.1211-7.1992-7.5586l-15.48 12.477c2.5195 3.2383 5.8789 5.8789 9.7188 7.5586z"/>
    <path d="m380.89 232.73c-3-2.2812-6.2383-4.0781-9.7188-5.3984-1.5586-0.60156-2.8789-1.4414-4.082-2.3984l-37.801 13.68-25.32-18.602c-1.1992 1.082-2.6406 2.0391-4.3203 2.6406-2.3984 0.96094-4.4414 2.5195-5.8789 4.6797l25.32 18.719-26.879 26.52c1.1992 1.082 2.6406 2.0391 4.3203 2.6406 2.2812 0.96094 4.3203 2.3984 5.7617 4.3203l29.281-28.922z"/>
    <path d="m258.37 222.64c-0.48047-0.12109-0.83984-0.35938-1.1992-0.60156l-20.16 12.719-33.84-8.8789c-1.4414 2.0391-3.6016 3.7188-6 4.6797-2.3984 0.83984-4.4414 2.5195-5.8789 4.5586l42.84 11.398 19.082 29.641c0.60156-0.35938 1.1992-0.71875 1.918-0.96094 3.2422-1.3203 5.8789-3.7188 7.3203-6.8398l-16.082-25.199 19.801-12.602v-0.12109c-1.4375-3.5938-4.3203-6.4727-7.8008-7.793z"/>
    <path d="m282.25 180.64-8.1602-34.199 19.199-13.918c-1.4414-2.0391-3.6016-3.7188-6-4.6797-1.6797-0.60156-3.1211-1.5586-4.3203-2.6406l-16.801 12.238-36.242-9.7188-34.559-38.52c-0.12109 0.12109-0.35938 0.12109-0.48047 0.23828-3.4805 1.3203-6.3594 4.1992-7.6797 7.8008-0.12109 0.12109-0.12109 0.35938-0.23828 0.48047l35.16 39.359c0.83984 0.83984 1.8008 1.4414 3 1.8008l37.199 9.9609 8.1602 34.441c2.2812-1.918 5.2812-3 8.5195-3 1.082-0.003906 2.1602 0.11719 3.2422 0.35547z"/>
    <path d="m363.49 282.52c-10.918 10.441-11.16 27.84-0.71875 38.758 5.1602 5.2812 12 8.2812 19.32 8.3984h0.48047c7.1992 0 13.918-2.7617 19.078-7.6797 5.5195-5.3984 8.2812-12.602 8.2812-19.801 0-6.8398-2.5195-13.68-7.5586-18.961-10.562-10.914-27.961-11.273-38.883-0.71484zm29.762 30.84c-2.8789 2.8789-6.4805 4.5586-10.918 4.3203-4.1992-0.12109-8.0391-1.8008-10.922-4.6797-2.8789-3-4.3203-6.9609-4.3203-11.039 0.12109-4.082 1.8008-8.0391 4.8008-10.801 3-2.8789 6.8398-4.3203 10.68-4.3203 4.0781 0 8.0391 1.5586 11.16 4.6797 5.8789 6.1211 5.6367 15.961-0.48047 21.84z"/>
    <path d="m328.56 352.55c-3.9844 3.8398-4.1055 10.184-0.26562 14.172 3.8398 3.9844 10.184 4.1055 14.172 0.26172 3.9844-3.8398 4.1055-10.184 0.26562-14.172s-10.184-4.1055-14.172-0.26172z"/>
    <path d="m139.39 179.14c0 11.844-9.6016 21.445-21.445 21.445s-21.445-9.6016-21.445-21.445 9.6016-21.449 21.445-21.449 21.445 9.6055 21.445 21.449"/>
    <path d="m156.7 149.55c5.5352 0 10.023-4.4883 10.023-10.023s-4.4883-10.023-10.023-10.023-10.023 4.4883-10.023 10.023 4.4883 10.023 10.023 10.023z"/>
  </g>
</svg>