<?xml version="1.0" encoding="utf-8"?>
<svg width="700pt" height="700pt" version="1.1" viewBox="104.499 0 520.02 552.452" xmlns="http://www.w3.org/2000/svg">
  <g>
    <path d="m330.5 264.86-19.441 65.641c-2.2812-3.6016-6.2383-5.8789-10.68-6.1211l21.961-73.918c2.0391 2.8789 3.7188 6 5.0391 9.3594 0.71875 1.918 1.8008 3.5977 3.1211 5.0391z"/>
    <path d="m345.02 403.45c-1.8008 3.7188-4.4414 6.9609-7.6797 9.3594l-28.32-33.238c1.5586-1.4414 2.7578-3.1211 3.4805-5.1602 0.83984-1.9219 2.0391-3.7188 3.6016-5.1602z"/>
    <path d="m168.74 370.34-16.441 24.719c-1.918-1.4414-3.4805-3.3594-4.3203-5.7617-0.71875-1.8008-1.8008-3.4805-3.1211-4.8008l16.922-25.441c2.6406 2.6406 4.6797 5.6406 6 9.1211 0.35938 0.72266 0.72266 1.4414 0.96094 2.1641z"/>
    <path d="m181.94 480.73c-1.8008 1.3203-3.2422 3.2422-4.1992 5.5195-0.71875 2.0391-2.0391 3.8398-3.6016 5.1602l-30.84-54.602c2.0391-1.5586 3.7227-3.7188 4.6797-6.2383 0.71875-1.6797 1.6797-3.2422 3-4.5586z"/>
    <path d="m309.62 520.81c0 1.3203 0.23828 2.6406 0.48047 3.8398l-95.16-6.9609c3.2422-2.5195 5.1602-6.4805 5.1602-10.801v-0.96094l92.039 6.8398c-1.5586 2.2852-2.5195 5.043-2.5195 8.043z"/>
    <path d="m361.1 469.09-8.7617 31.559c-0.12109-0.12109-0.23828-0.23828-0.23828-0.35938-1.6797-4.4414-5.3984-7.5586-9.8398-8.5195l7.4414-26.52c2.6406 2.5195 6.2422 3.9609 10.082 3.9609 0.47656 0 0.83594 0 1.3164-0.12109z"/>
    <path d="m452.78 161.18-74.52 40.918c-3.9609-2.0391-7.5586-4.6797-10.68-7.8008l74.281-40.801c1.4414 1.6797 3.3594 3 5.5195 3.8398 2.1602 0.84375 3.9609 2.1641 5.3984 3.8438z"/>
    <path d="m474.74 135.5v0.48047c-0.24219-0.12109-0.35938-0.24219-0.35938-0.35937z"/>
    <path d="m564.02 100.09-68.281 37.559c-1.5586-2.7578-3.9609-4.918-7.082-6.1211-1.1992-0.48047-2.2812-1.0781-3.2422-1.918l66.961-36.719c1.5586 1.8008 3.6016 3.1211 5.8789 4.082 2.043 0.83594 3.9648 1.7969 5.7656 3.1172z"/>
    <path d="m474.74 135.5v0.48047c-0.24219-0.12109-0.35938-0.24219-0.35938-0.35937z"/>
    <path d="m478.34 80.176-2.3984 37.199c-2.1602-1.5586-4.918-2.3984-7.8008-2.3984-1.4414 0-2.8789 0.23828-4.1992 0.60156l2.3984-35.879c2.0391 0.96094 4.3203 1.5586 6.7188 1.5586 1.8008-0.003906 3.6016-0.36328 5.2812-1.082z"/>
    <path d="m532.46 179.18c-2.6406 2.5195-5.6406 4.4414-9.1211 5.7617-0.83984 0.35938-1.6797 0.71875-2.3984 1.1992l-38.281-24c1.5586-2.1602 3.6016-3.8398 6.1211-4.8008 1.6797-0.71875 3.1211-1.6797 4.3203-2.7578z"/>
    <path d="m474.74 135.5v0.48047c-0.24219-0.12109-0.35938-0.24219-0.35938-0.35937z"/>
    <path d="m378.38 222.97c-14.758 5.7617-26.52 17.641-32.281 32.398-0.60156 1.8008-2.1602 2.6406-3.7188 2.6406s-3.1211-0.83984-3.8398-2.6406c-5.7617-14.762-17.641-26.641-32.52-32.398-3.4805-1.4414-3.4805-6.2383 0-7.6797 14.879-5.6406 26.762-17.52 32.52-32.281 0.71875-1.6797 2.2812-2.5195 3.8398-2.5195s3.1211 0.83984 3.7188 2.6406c5.7617 14.762 17.52 26.52 32.281 32.16 3.4805 1.4414 3.4805 6.2422 0 7.6797z"/>
    <path d="m484.34 146.18c-6.6016 2.5195-11.879 7.918-14.52 14.641-0.35937 0.71875-0.96094 1.1992-1.6797 1.1992s-1.4414-0.48047-1.8008-1.1992c-2.5195-6.7188-7.9219-12.121-14.641-14.641-1.5586-0.71875-1.5586-2.8789 0-3.4805 6.7188-2.5195 12.121-7.9219 14.641-14.52 0.35938-0.83984 1.0781-1.1992 1.8008-1.1992 0.71875 0 1.3203 0.35938 1.6797 1.1992 2.5195 6.6016 7.9219 12 14.52 14.52 1.5586 0.59766 1.5586 2.7578 0 3.4805z"/>
    <path d="m315.86 355.45c-6.6016 2.6406-12 8.0391-14.52 14.641-0.35938 0.83984-1.082 1.1992-1.8008 1.1992-0.60156 0-1.3203-0.35938-1.6797-1.1992-2.6406-6.6016-7.918-12-14.641-14.641-1.5586-0.60156-1.5586-2.7617 0-3.3594 6.7188-2.6406 12-7.918 14.641-14.641 0.35938-0.71875 1.082-1.082 1.6797-1.082 0.71875 0 1.4414 0.35938 1.8008 1.082 2.5195 6.7188 7.8008 12 14.52 14.641 1.5586 0.60156 1.5586 2.7617 0 3.3594z"/>
    <path d="m206.9 508.7c-6.6016 2.5195-11.879 7.918-14.52 14.641-0.23828 0.71875-0.96094 1.1992-1.6797 1.1992s-1.4414-0.48047-1.6797-1.1992c-2.6406-6.7188-8.0391-12.121-14.762-14.641-1.5586-0.71875-1.5586-2.8789 0-3.4805 6.7188-2.6406 12.121-7.918 14.762-14.52 0.23828-0.83984 0.96094-1.1992 1.6797-1.1992s1.4414 0.35938 1.6797 1.1992c2.6406 6.6016 7.918 11.879 14.52 14.52 1.6797 0.59766 1.6797 2.7617 0 3.4805z"/>
    <path d="m355.46 522.5c-6.6016 2.6406-12 8.0391-14.52 14.762-0.35938 0.71875-0.96094 1.0781-1.6797 1.0781s-1.4414-0.35938-1.8008-1.0781c-2.5195-6.7227-7.9219-12.121-14.641-14.762-1.5586-0.60156-1.5586-2.7617 0-3.3594 6.7188-2.6406 12.121-7.9219 14.641-14.52 0.35937-0.83984 1.0781-1.1992 1.8008-1.1992 0.71875 0 1.3203 0.35938 1.6797 1.1992 2.5195 6.6016 7.918 11.879 14.52 14.52 1.5586 0.59766 1.5586 2.7578 0 3.3594z"/>
    <path d="m151.34 411.61c-6.6016 2.6406-12 8.0391-14.52 14.641-0.35937 0.83984-1.0781 1.1992-1.8008 1.1992-0.60156 0-1.3203-0.35938-1.6797-1.1992-2.6406-6.6016-7.9219-12-14.641-14.641-1.5586-0.60156-1.5586-2.7578 0-3.3594 6.7188-2.6406 12-7.9219 14.641-14.641 0.35938-0.71875 1.0781-1.1992 1.6797-1.1992 0.71875 0 1.4414 0.48047 1.8008 1.1992 2.5195 6.7188 7.8008 12 14.52 14.641 1.5586 0.60156 1.5586 2.7617 0 3.3594z"/>
    <path d="m497.78 45.133c-10.082 3.9609-18.238 12.121-22.082 22.32-0.48047 1.1992-1.5586 1.8008-2.6406 1.8008-1.082 0-2.1602-0.60156-2.6406-1.8008-3.9609-10.199-12.121-18.359-22.199-22.32-2.5195-0.96094-2.3984-4.3203 0-5.1602 10.078-3.9609 18.242-12 22.199-22.199 0.48047-1.1992 1.5586-1.8008 2.6406-1.8008 1.0781 0 2.1602 0.60156 2.6406 1.8008 3.8398 10.199 12 18.242 22.082 22.199 2.4023 0.83984 2.4023 4.2031 0 5.1602z"/>
    <path d="m612.26 85.812c-10.199 3.9609-18.238 12.121-22.199 22.199-0.48047 1.1992-1.5586 1.8008-2.6406 1.8008-0.96094 0-2.0391-0.60156-2.5195-1.8008-3.9609-10.082-12.121-18.242-22.32-22.199-2.3984-0.96094-2.3984-4.3203 0-5.2812 10.199-3.8398 18.359-12 22.32-22.078 0.48047-1.1992 1.5586-1.8008 2.5195-1.8008 1.082 0 2.1602 0.60156 2.6406 1.8008 3.9609 10.078 12 18.238 22.078 22.078 2.4023 0.96484 2.5234 4.3242 0.12109 5.2812z"/>
    <path d="m577.34 201.38c-10.199 3.9609-18.238 12.121-22.199 22.32-0.35938 1.1992-1.4414 1.8008-2.5195 1.8008-1.082 0-2.1602-0.60156-2.6406-1.8008-3.9609-10.199-12.121-18.359-22.32-22.32-2.3984-0.96094-2.3984-4.3203 0-5.1602 10.199-3.9609 18.359-12 22.32-22.199 0.48047-1.1992 1.5586-1.8008 2.6406-1.8008 1.0781 0 2.1602 0.60156 2.5195 1.8008 3.9609 10.199 12 18.242 22.199 22.199 2.3984 0.83984 2.3984 4.1992 0 5.1602z"/>
    <path d="m384.5 433.09c-10.199 3.9609-18.242 12.121-22.199 22.32-0.48047 1.1992-1.4414 1.8008-2.5195 1.8008-1.082 0-2.1602-0.60156-2.6406-1.8008-3.9609-10.199-12.121-18.359-22.32-22.32-2.3984-0.96094-2.3984-4.1992 0-5.1602 10.199-3.9609 18.359-12 22.32-22.199 0.48047-1.1992 1.5586-1.8008 2.6406-1.8008 0.96094 0 2.0391 0.60156 2.5195 1.8008 3.9609 10.199 12 18.242 22.199 22.199 2.3984 0.96094 2.3984 4.1992 0 5.1602z"/>
    <path d="m206.3 341.54c-10.078 3.9609-18.121 12.121-22.078 22.199-0.48047 1.1992-1.5586 1.8008-2.6406 1.8008-1.0781 0-2.1602-0.60156-2.6406-1.8008-3.9609-10.082-12-18.238-22.199-22.199-2.3984-0.96094-2.3984-4.3203 0-5.2812 10.199-3.8398 18.238-12 22.199-22.082 0.48047-1.1992 1.5586-1.8008 2.6406-1.8008s2.1602 0.60156 2.6406 1.8008c3.9609 10.082 12 18.238 22.078 22.082 2.4023 0.96094 2.4023 4.3203 0 5.2812z"/>
    <path d="m522.02 250.34c-10.559-10.918-27.961-11.281-38.762-0.71875-5.2812 5.0391-8.2812 11.879-8.3984 19.199-0.23828 7.3203 2.5195 14.281 7.5586 19.559 5.1602 5.2812 12 8.2812 19.32 8.3984h0.48047c7.1992 0 13.918-2.7578 19.078-7.6797 5.2812-5.0391 8.2812-11.879 8.3984-19.199v-0.48047c0.003907-7.1992-2.7578-13.918-7.6758-19.078zm-9 30.117c-3 2.8789-6.8398 4.918-11.039 4.3203-4.1992-0.12109-8.0391-1.8008-10.801-4.6797-6-6.2383-5.7617-15.961 0.35937-21.84 3-2.8789 6.8398-4.3203 10.68-4.3203 4.0781 0 8.1602 1.5586 11.16 4.6797 2.8789 3 4.4414 6.8398 4.3203 11.039-0.12109 4.082-1.8008 7.9219-4.6797 10.801z"/>
    <path d="m432.45 346.23c0 5.5352-4.4883 10.023-10.023 10.023-5.5352 0-10.02-4.4883-10.02-10.023 0-5.5352 4.4844-10.02 10.02-10.02 5.5352 0 10.023 4.4844 10.023 10.02"/>
    <path d="m251.02 185.91c0 11.848-9.6016 21.449-21.449 21.449-11.844 0-21.445-9.6016-21.445-21.449 0-11.844 9.6016-21.445 21.445-21.445 11.848 0 21.449 9.6016 21.449 21.445"/>
    <path d="m321.45 114.83c0 5.5352-4.4883 10.023-10.023 10.023-5.5352 0-10.023-4.4883-10.023-10.023s4.4883-10.023 10.023-10.023c5.5352 0 10.023 4.4883 10.023 10.023"/>
  </g>
</svg>