<?xml version="1.0" encoding="utf-8"?>
<svg width="700pt" height="700pt" version="1.1" viewBox="77.695 65.39 548.784 450.206" xmlns="http://www.w3.org/2000/svg">
  <g>
    <path d="m573.68 196.7c-15.121 0-27.359 12.242-27.359 27.48 0 15.121 12.238 27.359 27.359 27.359 15.121 0 27.48-12.238 27.48-27.359 0-15.238-12.359-27.48-27.48-27.48zm0 42.84c-8.5195 0-15.359-6.8398-15.359-15.359 0-8.5195 6.8398-15.48 15.359-15.48s15.48 6.9609 15.48 15.48c0 8.5195-6.957 15.359-15.48 15.359z"/>
    <path d="m610.09 334.99c0 5.5352-4.4883 10.023-10.023 10.023-5.5352 0-10.02-4.4883-10.02-10.023 0-5.5352 4.4844-10.02 10.02-10.02 5.5352 0 10.023 4.4844 10.023 10.02"/>
    <path d="m173.7 285.04c0 11.844-9.6016 21.445-21.445 21.445s-21.445-9.6016-21.445-21.445c0-11.848 9.6016-21.449 21.445-21.449s21.445 9.6016 21.445 21.449"/>
    <path d="m196.41 198.8c0 5.5352-4.4883 10.023-10.023 10.023-5.5352 0-10.02-4.4883-10.02-10.023 0-5.5352 4.4844-10.02 10.02-10.02 5.5352 0 10.023 4.4844 10.023 10.02"/>
    <path d="m548.72 122.18c-2.1602 3.3594-5.1602 6.1211-8.5195 8.2812l-18.242-20.281c0.12109-0.23828 0.24219-0.60156 0.35938-0.83984 1.3203-3.6016 4.1992-6.3594 7.6797-7.8008h0.12109z"/>
    <path d="m488.96 101.79-35.16 11.039c-1.1992-4.0781-4.1992-7.4414-8.3984-9-0.35938-0.12109-0.71875-0.35938-1.0781-0.60156l35.879-11.281c1.0781 4.3203 4.1992 7.9219 8.3984 9.6016 0.12109 0 0.23828 0.12109 0.35938 0.24219z"/>
    <path d="m442.88 199.59-18-53.281c4.3203 0 8.2812-2.0391 10.918-5.2812l19.68 58.32c-1.9219-0.96094-3.9609-1.4414-6.1211-1.4414-2.2773 0.003906-4.5586 0.60156-6.4766 1.6836z"/>
    <path d="m534.68 277.59c0 0.12109-0.12109 0.12109-0.12109 0.23828-1.4414 3.4805-4.1992 6.3594-7.8008 7.6797-0.24219 0.12109-0.60156 0.24219-0.83984 0.35938l-56.762-45.121c0.23828-0.23828 0.60156-0.35938 0.83984-0.48047 3.7188-1.4414 6.6016-4.3203 7.918-7.918z"/>
    <path d="m224.12 405.27-50.641 15.719c-1.6797-3.2383-4.5586-5.7617-8.1602-7.0781-1.3203-0.48047-2.7617-1.082-3.9609-1.8008l59.641-18.48c-0.12109 0.83984-0.24219 1.8008-0.24219 2.6406 0.003906 3.3594 1.2031 6.4805 3.3633 9z"/>
    <path d="m242.84 281.07-93.117 122.52c-2.8789-3-5.3984-6.3594-7.4414-10.082l93.242-122.76c2.1602 1.5586 3.9609 3.7188 4.9219 6.2383 0.59766 1.5625 1.4375 2.8828 2.3945 4.0859z"/>
    <path d="m282.44 259.46c0.23828-1.082 0.35938-2.1602 0.35938-3.2422 0-3.1211-1.0781-6.1211-3-8.5195l140.16-18.719c0.60156 4.8008 3.6016 9 8.1602 10.922z"/>
    <path d="m546.8 469.95c-3.7188 2.3984-6.1211 6.2383-6.7188 10.559l-263.04-75.961c1.6797-2.2812 2.7578-5.1602 2.6406-8.2812 0-1.1992-0.12109-2.3984-0.48047-3.6016z"/>
    <path d="m578.36 443.91c-4.5586 0.12109-8.6406 2.1602-11.398 5.6406l-18.363-121.68c4.6797-0.35938 8.8789-3 11.039-7.1992z"/>
    <path d="m603.32 485.07c-10.082 3.9609-18.242 12.121-22.082 22.199-0.48047 1.1992-1.5586 1.8008-2.6406 1.8008s-2.1602-0.60156-2.6406-1.8008c-3.9609-10.078-12.121-18.238-22.199-22.199-2.5195-0.96094-2.3984-4.3203 0-5.2812 10.078-3.8398 18.242-12 22.199-22.082 0.48047-1.1992 1.5586-1.8008 2.6406-1.8008 1.0781 0 2.1602 0.60156 2.6406 1.8008 3.8398 10.082 12 18.238 22.082 22.082 2.4023 0.96094 2.4023 4.3203 0 5.2812z"/>
    <path d="m589.76 149.07c-10.199 3.9609-18.242 12.121-22.199 22.199-0.48047 1.1992-1.5586 1.8008-2.6406 1.8008-0.96094 0-2.0391-0.60156-2.5195-1.8008-3.9609-10.078-12.121-18.238-22.32-22.199-2.3984-0.96094-2.3984-4.3203 0-5.2812 10.199-3.8398 18.359-12 22.32-22.082 0.48047-1.1992 1.5586-1.8008 2.5195-1.8008 1.082 0 2.1602 0.60156 2.6406 1.8008 3.9609 10.082 12 18.238 22.082 22.082 2.5156 0.96094 2.5156 4.3203 0.11719 5.2812z"/>
    <path d="m266.6 397.95c-6.7188 2.6406-12 8.0391-14.641 14.762-0.23828 0.71875-0.96094 1.082-1.6797 1.082s-1.4414-0.35937-1.6797-1.082c-2.6406-6.7188-8.0391-12.121-14.641-14.762-1.6797-0.60156-1.6797-2.7617 0-3.3594 6.6016-2.6406 12-7.9219 14.641-14.52 0.23828-0.83984 0.96094-1.1992 1.6797-1.1992s1.4414 0.35937 1.6797 1.1992c2.6406 6.6016 7.9219 11.879 14.641 14.52 1.5586 0.59766 1.5586 2.7578 0 3.3594z"/>
    <path d="m269.6 258.02c-6.6016 2.6406-12 7.918-14.52 14.641-0.35938 0.83984-1.0781 1.1992-1.6797 1.1992-0.71875 0-1.4414-0.35938-1.8008-1.1992-2.5195-6.7188-7.9219-12-14.641-14.641-1.5586-0.60156-1.5586-2.8789 0-3.4805 6.7188-2.5195 12.121-7.8008 14.641-14.52 0.35938-0.83984 1.0781-1.1992 1.8008-1.1992 0.60156 0 1.3203 0.35938 1.6797 1.1992 2.5195 6.7188 7.9219 12 14.52 14.52 1.5586 0.60156 1.5586 2.8828 0 3.4805z"/>
    <path d="m563.72 300.14c-6.7188 2.6406-12 7.918-14.52 14.641-0.35938 0.83984-1.082 1.1992-1.8008 1.1992-0.60156 0-1.3203-0.35938-1.6797-1.1992-2.6406-6.6016-7.9219-12-14.641-14.641-1.5586-0.60156-1.5586-2.7617 0-3.3594 6.7188-2.6406 12-7.918 14.641-14.641 0.35938-0.71875 1.0781-1.1992 1.6797-1.1992 0.71875 0 1.4414 0.48047 1.8008 1.1992 2.5195 6.7188 7.8008 12 14.52 14.641 1.5586 0.59766 1.5586 2.7578 0 3.3594z"/>
    <path d="m465.68 229.11c-6.7188 2.6406-12 7.9219-14.52 14.641-0.35938 0.83984-1.082 1.1992-1.8008 1.1992s-1.3203-0.35937-1.6797-1.1992c-2.6406-6.7188-7.918-12-14.641-14.641-1.5586-0.60156-1.5586-2.8789 0-3.4805 6.7188-2.5195 12-7.8008 14.641-14.52 0.35938-0.83984 0.96094-1.1992 1.6797-1.1992s1.4414 0.48047 1.8008 1.1992c2.5195 6.7188 7.8008 12 14.52 14.52 1.5625 0.59766 1.5625 2.8789 0 3.4805z"/>
    <path d="m441.08 118.46c-6.6016 2.5195-11.879 7.918-14.52 14.641-0.35938 0.71875-0.96094 1.1992-1.6797 1.1992s-1.4414-0.48047-1.8008-1.1992c-2.5195-6.7188-7.918-12.121-14.641-14.641-1.5586-0.71875-1.5586-2.8789 0-3.4805 6.7188-2.6406 12.121-7.918 14.641-14.52 0.35938-0.83984 1.082-1.1992 1.8008-1.1992s1.3203 0.35938 1.6797 1.1992c2.6406 6.6016 7.9219 11.879 14.52 14.52 1.5586 0.60156 1.5586 2.7617 0 3.4805z"/>
    <path d="m525.68 90.383c-6.7188 2.6406-12 7.9219-14.641 14.641-0.24219 0.83984-0.96094 1.1992-1.6797 1.1992s-1.4414-0.35938-1.6797-1.1992c-2.6406-6.7188-8.0391-12-14.641-14.641-1.5586-0.60156-1.5586-2.7578 0-3.4805 6.6016-2.5195 12-7.8008 14.641-14.52 0.23828-0.71875 0.96094-1.1992 1.6797-1.1992s1.4414 0.48047 1.6797 1.1992c2.6406 6.7188 7.918 12 14.641 14.52 1.5625 0.72266 1.5625 2.8828 0 3.4805z"/>
    <path d="m161 432.62c-14.762 5.7578-26.52 17.641-32.281 32.52-0.71875 1.6797-2.2812 2.6406-3.8398 2.6406s-3.1211-0.96094-3.7188-2.6406c-5.8789-14.879-17.762-26.762-32.52-32.52-3.4805-1.3203-3.4805-6.2383 0-7.5586 14.879-5.7578 26.758-17.52 32.52-32.281 0.60156-1.8008 2.1602-2.6406 3.7188-2.6406s3.1211 0.83984 3.8398 2.6406c5.7578 14.762 17.52 26.52 32.281 32.281 3.4805 1.3164 3.4805 6.2383 0 7.5586z"/>
  </g>
</svg>