<?xml version="1.0" encoding="utf-8"?>
<svg width="700pt" height="700pt" version="1.1" viewBox="97.844 37.044 505.657 502.25" xmlns="http://www.w3.org/2000/svg">
  <g>
    <path d="m586.76 314.81c-5.3984-4.9219-12.48-7.3203-19.68-7.082-7.3203 0.35938-14.16 3.6016-19.082 9-4.918 5.5195-7.4414 12.48-7.082 19.801 0.35938 7.3203 3.6016 14.039 9 18.961 5.1602 4.6797 11.641 7.1992 18.48 7.1992 0.35937 0 0.83984 0 1.3203-0.12109 7.3203-0.35938 14.039-3.4805 18.961-9 10.203-11.16 9.3633-28.559-1.918-38.758zm-6.957 30.719c-2.7617 3.1211-6.6016 4.918-10.68 5.0391-4.082 0.12109-8.0391-1.1992-11.16-3.9609-3-2.7578-4.8008-6.4805-5.0391-10.68-0.12109-4.0781 1.1992-8.0391 3.9609-11.16 3.1211-3.3594 7.3203-5.0391 11.52-5.0391 3.7188 0 7.4414 1.3203 10.32 4.082 3.3594 3 5.1602 7.1992 5.1602 11.398-0.003907 3.7188-1.4453 7.4414-4.082 10.32z"/>
    <path d="m523.49 435.03c0 5.5352-4.4883 10.023-10.023 10.023s-10.023-4.4883-10.023-10.023 4.4883-10.02 10.023-10.02 10.023 4.4844 10.023 10.02"/>
    <path d="m147.58 285.01c0 11.848-9.6016 21.449-21.445 21.449s-21.445-9.6016-21.445-21.449c0-11.844 9.6016-21.445 21.445-21.445s21.445 9.6016 21.445 21.445"/>
    <path d="m177.62 218.5c0 5.5352-4.4883 10.023-10.023 10.023-5.5352 0-10.02-4.4883-10.02-10.023s4.4844-10.023 10.02-10.023c5.5352 0 10.023 4.4883 10.023 10.023"/>
    <path d="m209.96 436.73-43.559 49.32c-3.7188-1.918-6.8398-4.5586-9.1211-7.8008l45.359-51.238c2.5195 1.5586 4.4414 3.9609 5.5195 6.7188 0.47656 1.082 0.95703 2.0391 1.8008 3z"/>
    <path d="m226.16 195.65v188.76c-1.5586-0.60156-3.2422-0.96094-5.0391-0.96094-2.5195 0-4.9219 0.71875-6.9609 1.918v-189.84c1.9219 0.71875 3.9609 1.1992 6.1211 1.1992 2.0391 0 4.0781-0.35937 5.8789-1.0781z"/>
    <path d="m410.72 80.449-146.16 52.559c-1.1992-0.83984-2.5195-1.5586-3.9609-2.1602-3.6016-1.4414-6.8398-3.2422-9.9609-5.6406l150.84-54.121c1.1992 3.9609 4.1992 7.3203 8.2812 8.8789 0.35938 0.12109 0.72266 0.24219 0.96094 0.48438z"/>
    <path d="m511.64 211.49c-3.9609 1.3203-7.3203 4.4414-8.8789 8.5195l-65.16-125.4c2.6406-1.4414 4.6797-3.8398 5.7578-6.8398 0.48047-1.3203 1.1992-2.5195 2.2812-3.6016z"/>
    <path d="m516.32 287.81-75.961 151.92c-3.6016-2.6406-6.4805-6.1211-8.2812-10.199l73.32-146.76c2.6406 3.1211 6.6016 5.043 10.922 5.043z"/>
    <path d="m490.28 233.93c-0.96094 0.60156-2.0391 1.082-3 1.4414-3.6016 1.3203-6.3594 3.9609-8.0391 7.3203l-222.12-80.281c1.0781-0.60156 2.3984-1.1992 3.6016-1.6797 3.4805-1.3203 6.3594-3.8398 8.0391-6.9609z"/>
    <path d="m256.28 149.57c-14.758 5.7617-26.52 17.641-32.16 32.52-0.71875 1.6797-2.2812 2.6406-3.8398 2.6406s-3.1211-0.96094-3.8398-2.6406c-5.7617-14.879-17.641-26.762-32.398-32.52-3.6016-1.3203-3.6016-6.2383 0-7.5586 14.762-5.7617 26.641-17.52 32.398-32.281 0.71875-1.8008 2.2812-2.6406 3.8398-2.6406s3.1211 0.83984 3.8398 2.6406c5.6406 14.762 17.398 26.52 32.16 32.281 3.6016 1.3203 3.6016 6.2383 0 7.5586z"/>
    <path d="m541.16 251.81c-10.078 3.9609-18.121 12.121-22.078 22.199-0.48438 1.1992-1.5625 1.8008-2.6445 1.8008-1.082 0-2.0391-0.60156-2.5195-1.8008-3.9609-10.082-12.121-18.238-22.32-22.199-2.3984-0.96094-2.3984-4.3203 0-5.2812 10.199-3.8398 18.359-12 22.32-22.082 0.48047-1.1992 1.4414-1.8008 2.5195-1.8008 1.082 0 2.1602 0.60156 2.6406 1.8008 3.9609 10.082 12 18.242 22.078 22.082 2.4023 0.96094 2.4023 4.3203 0.003906 5.2812z"/>
    <path d="m442.28 459.65c-10.199 3.9609-18.242 12.121-22.199 22.199-0.48047 1.3203-1.4414 1.918-2.5195 1.918-1.082 0-2.1602-0.60156-2.6406-1.8008-3.9609-10.199-12.121-18.359-22.32-22.32-2.3984-0.96094-2.3984-4.3203 0-5.1602 10.199-3.9609 18.359-12 22.32-22.199 0.48047-1.1992 1.5586-1.8008 2.6406-1.8008 1.0781 0 2.0391 0.60156 2.5195 1.8008 3.9609 10.199 12 18.242 22.199 22.199 2.4023 0.84375 2.4023 4.2031 0 5.1641z"/>
    <path d="m237.32 414.65c-6.6016 2.6406-11.879 8.0391-14.52 14.641-0.23828 0.83984-0.96094 1.1992-1.6797 1.1992s-1.4414-0.35938-1.6797-1.1992c-2.6406-6.6016-8.0391-12-14.641-14.641-1.6797-0.60156-1.6797-2.7617 0-3.3594 6.6016-2.6406 12-7.9219 14.641-14.641 0.23828-0.71875 0.96094-1.1992 1.6797-1.1992s1.4414 0.48047 1.6797 1.1992c2.6406 6.7188 7.918 12 14.52 14.641 1.6797 0.59766 1.6797 2.7578 0 3.3594z"/>
    <path d="m446.72 68.809c-6.6016 2.6406-12 7.918-14.52 14.641-0.35938 0.83984-1.0781 1.1992-1.6797 1.1992-0.71875 0-1.4414-0.35938-1.8008-1.1992-2.5195-6.7188-7.918-12-14.641-14.641-1.5586-0.60156-1.5586-2.7617 0-3.4805 6.7188-2.5195 12.121-7.8008 14.641-14.52 0.35938-0.71875 1.082-1.1992 1.8008-1.1992 0.60156 0 1.3203 0.48047 1.6797 1.1992 2.5195 6.7188 7.9219 12 14.52 14.52 1.5586 0.71875 1.5586 2.8789 0 3.4805z"/>
    <path d="m164.72 503.81c-10.082 3.9609-18.121 12.121-22.082 22.199-0.48047 1.1992-1.5586 1.8008-2.6406 1.8008s-2.0391-0.60156-2.5195-1.8008c-3.9609-10.082-12.121-18.238-22.32-22.199-2.3984-0.96094-2.3984-4.3203 0-5.2812 10.199-3.8398 18.359-12 22.32-22.082 0.48047-1.1992 1.4414-1.8008 2.5195-1.8008 1.082 0 2.1602 0.60156 2.6406 1.8008 3.9609 10.082 12 18.238 22.082 22.082 2.3984 0.96094 2.5195 4.3203 0 5.2812z"/>
  </g>
</svg>