<?xml version="1.0" encoding="utf-8"?>
<svg width="700pt" height="700pt" version="1.1" viewBox="131.916 16.862 406.977 541.67" xmlns="http://www.w3.org/2000/svg">
  <g>
    <path d="m451.11 82.488-28.441-31.082c-1.4414 1.9219-3.3594 3.3594-5.6406 4.1992-1.6797 0.71875-3.1211 1.5586-4.3203 2.7578l27.238 29.641-7.1992 23.398c4.4414 0.35938 8.3984 2.8789 10.559 6.7188l9.1211-29.879c0.60156-2.0312 0.12109-4.1914-1.3164-5.7539zm-74.883 139.8c-0.83984 0.60156-1.6797 0.96094-2.5195 1.3203-3.1211 1.1992-5.6406 3.6016-7.082 6.4805l28.082 21.719c1.4414-3.2383 4.0781-5.8789 7.5586-7.1992 0.60156-0.24219 1.1992-0.48047 1.6797-0.83984zm41.52 160.2c-2.7617 3.4805-4.918 7.3203-6.4805 11.398 0 0.12109-0.12109 0.12109-0.12109 0.23828l69.84 102c2.0391-2.2812 3.6016-5.0391 4.8008-7.918 0.48047-1.3203 1.082-2.3984 1.9219-3.4805zm-53.879 81.363c-0.60156-0.24219-1.3203-0.35937-1.9219-0.35937h-35.52c1.0781 1.918 1.6797 4.082 1.6797 6.3594 0 1.918-0.35937 3.8398-1.082 5.6406h33.961l101.76 34.68c1.5586-3 4.1992-5.2812 7.5586-6.6016 1.4414-0.60156 2.8789-1.3203 4.1992-2.1602zm-169.2 19.559c-0.23828 0.12109-0.35937 0.12109-0.60156 0.24219-3.9609 1.5586-7.3203 3.9609-9.9609 6.9609l32.398 23.039c0.12109 0 0.12109-0.12109 0.23828-0.12109 3.4805-1.3203 6.3594-4.1992 7.8008-7.6797 0.12109-0.24219 0.23828-0.60156 0.48047-0.83984zm83.281-0.60156c-1.3203-0.48047-2.5195-1.1992-3.6016-2.1602h-0.12109l-24.719 23.879c0.35938 0.35938 0.60156 0.83984 0.71875 1.3203 1.4414 3.3594 3.9609 6.1211 7.4414 7.4414l26.52-25.441c-1.4414-2.2773-3.5977-4.0781-6.2383-5.0391zm145.08-195.72c-3.9609 0-7.6797-1.6797-10.199-4.5586l-9.3594 21.84c3.4805 1.6797 6.2383 4.6797 7.6797 8.5195 0.23828 0.71875 0.60156 1.4414 0.96094 2.0391l11.879-27.84zm-21.238-146.28-25.918 6.7188-20.281-31.32c-2.6406 2.6406-4.8008 5.8789-6.2383 9.4805-0.23828 0.60156-0.60156 1.1992-0.83984 1.8008l17.16 26.398-7.5586 28.441c3.4805 1.4414 6.3594 4.1992 7.8008 7.8008 0.48047 1.1992 0.96094 2.1602 1.8008 3.1211l8.8789-33.48 30.84-8.0391c-3.4844-2.3984-5.6445-6.4805-5.6445-10.922zm-26.16-85.199c-0.83984-0.35938-1.5586-0.71875-2.2812-1.1992l-21.719 17.52c2.0391 3.4805 5.0391 6.4805 8.5195 8.5195l22.559-18.242c-1.3203-2.9961-3.9609-5.3984-7.0781-6.5977z"/>
    <path d="m432.27 357.05c-14.762 5.7617-26.52 17.641-32.281 32.52-0.60156 1.8008-2.1602 2.6406-3.7188 2.6406s-3.1211-0.83984-3.8398-2.6406c-5.7617-14.762-17.641-26.641-32.52-32.52-3.4805-1.3203-3.4805-6.2383 0-7.5586 14.879-5.7617 26.758-17.52 32.52-32.281 0.71875-1.6797 2.2812-2.6406 3.8398-2.6406s3.1211 0.96094 3.7188 2.6406c5.7617 14.758 17.52 26.52 32.281 32.281 3.4766 1.3164 3.4766 6.2383 0 7.5586z"/>
    <path d="m314.9 471.65c-6.6016 2.5195-12 7.9219-14.52 14.641-0.35937 0.71875-1.0781 1.1992-1.6797 1.1992-0.71875 0-1.4414-0.48047-1.8008-1.1992-2.5195-6.7188-7.918-12.121-14.641-14.641-1.5586-0.71875-1.5586-2.8789 0-3.4805 6.7188-2.5195 12.121-7.9219 14.641-14.52 0.35938-0.83984 1.082-1.1992 1.8008-1.1992 0.60156 0 1.3203 0.35938 1.6797 1.1992 2.5195 6.6016 7.9219 12 14.52 14.52 1.5625 0.60156 1.5625 2.7617 0 3.4805z"/>
    <path d="m369.27 212.45c-6.6016 2.6406-12 8.0391-14.52 14.641-0.35938 0.83984-1.082 1.1992-1.8008 1.1992-0.60156 0-1.3203-0.35937-1.6797-1.1992-2.6406-6.6016-7.9219-12-14.641-14.641-1.5586-0.60156-1.5586-2.7617 0-3.3594 6.7188-2.6406 12.121-7.918 14.641-14.641 0.35938-0.71875 1.0781-1.082 1.6797-1.082 0.71875 0 1.4414 0.35937 1.8008 1.1992 2.5195 6.6016 7.918 11.879 14.52 14.52 1.5586 0.60547 1.5586 2.7656 0 3.3633z"/>
    <path d="m447.62 142.37c-6.7188 2.6406-12 8.0391-14.52 14.641-0.35938 0.83984-1.082 1.1992-1.8008 1.1992-0.60156 0-1.3203-0.35938-1.6797-1.1992-2.6406-6.6016-7.918-12-14.641-14.641-1.5586-0.60156-1.5586-2.7578 0-3.3594 6.7188-2.6406 12-7.9219 14.641-14.641 0.35938-0.71875 1.082-1.0781 1.6797-1.0781 0.71875 0 1.4414 0.35938 1.8008 1.0781 2.5195 6.7188 7.8008 12 14.52 14.641 1.5586 0.59766 1.5586 2.7578 0 3.3594z"/>
    <path d="m439.22 259.25c-6.6016 2.6406-11.879 7.9219-14.52 14.641-0.24219 0.83984-0.96094 1.1992-1.6797 1.1992s-1.4414-0.35938-1.6797-1.1992c-2.6406-6.7188-8.0391-12-14.762-14.641-1.5586-0.60156-1.5586-2.7617 0.12109-3.4805 6.6016-2.5195 12-7.8008 14.641-14.52 0.24219-0.71875 0.96094-1.1992 1.6797-1.1992s1.4414 0.48047 1.6797 1.1992c2.6406 6.7188 7.918 12 14.52 14.52 1.6797 0.71875 1.6797 2.8789 0 3.4805z"/>
    <path d="m412.59 44.449c-6.6016 2.6406-12 7.918-14.52 14.641-0.35938 0.83984-0.96094 1.1992-1.6797 1.1992s-1.4414-0.35937-1.8008-1.1992c-2.5195-6.6016-7.9219-12-14.641-14.641-1.5586-0.60156-1.5586-2.7617 0-3.3594 6.7188-2.6406 12.121-7.918 14.641-14.641 0.35937-0.71875 1.0781-1.1992 1.8008-1.1992 0.71875 0 1.3203 0.48047 1.6797 1.1992 2.5195 6.7188 7.9219 12 14.52 14.641 1.5586 0.60156 1.5586 2.7617 0 3.3594z"/>
    <path d="m253.7 528.17c-6.7188 2.6406-12 7.918-14.641 14.641-0.23828 0.83984-0.96094 1.1992-1.6797 1.1992s-1.4414-0.35938-1.6797-1.1992c-2.6406-6.7188-8.0391-12-14.641-14.641-1.6797-0.60156-1.6797-2.8789 0-3.4805 6.6016-2.5195 12-7.8008 14.641-14.52 0.23828-0.83984 0.96094-1.1992 1.6797-1.1992s1.4414 0.48047 1.6797 1.1992c2.6406 6.7188 7.9219 12 14.52 14.52 1.6836 0.59766 1.6836 2.8789 0.12109 3.4805z"/>
    <path d="m189.62 472.49c-10.078 3.9609-18.121 12.121-22.078 22.199-0.48047 1.1992-1.5586 1.8008-2.6406 1.8008-1.0781 0-2.1602-0.60156-2.6406-1.8008-3.9609-10.078-12-18.238-22.199-22.199-2.3984-0.96094-2.3984-4.3203 0-5.2812 10.199-3.8398 18.242-12 22.199-22.082 0.48047-1.1992 1.5586-1.8008 2.6406-1.8008s2.1602 0.60156 2.6406 1.8008c3.9609 10.082 12 18.242 22.078 22.082 2.3984 0.96484 2.3984 4.3242 0 5.2812z"/>
    <path d="m360.27 99.172c-10.082 3.9609-18.238 12.121-22.082 22.199-0.48047 1.1992-1.5586 1.9219-2.6406 1.9219s-2.1602-0.60156-2.6406-1.9219c-3.9609-10.078-12.121-18.242-22.199-22.199-2.5195-0.96094-2.3984-4.3203 0-5.2812 10.078-3.8398 18.238-12 22.199-22.082 0.48047-1.1992 1.5586-1.8008 2.6406-1.8008 1.0781 0 2.1602 0.60156 2.6406 1.8008 3.8398 10.199 12 18.238 22.082 22.082 2.3984 0.96094 2.3984 4.3203 0 5.2812z"/>
    <path d="m524.18 519.89c-10.078 3.9609-18.121 12.121-22.078 22.32-0.48047 1.1992-1.5586 1.8008-2.6406 1.8008-0.96094 0-2.0391-0.60156-2.5195-1.8008-3.9609-10.199-12.121-18.359-22.32-22.32-2.3984-0.96094-2.3984-4.1992 0-5.1602 10.199-3.9609 18.359-12 22.32-22.082 0.48047-1.1992 1.5586-1.8008 2.5195-1.8008 1.082 0 2.1602 0.60156 2.6406 1.8008 3.9609 10.082 12 18.121 22.078 22.082 2.4023 0.96094 2.5195 4.1992 0 5.1602z"/>
    <path d="m328.34 153.89c-10.199-11.16-27.602-11.879-38.758-1.5586-5.3984 4.918-8.5195 11.641-8.7578 18.961-0.35938 7.3203 2.2812 14.398 7.1992 19.801 5.3984 5.8789 12.84 8.7617 20.16 8.7617 6.7188 0 13.32-2.3984 18.602-7.1992 5.8789-5.3984 8.8789-12.719 8.8789-20.16-0.003907-6.6055-2.4023-13.324-7.3242-18.605zm-9.7188 29.879c-6.2383 5.7617-15.961 5.3984-21.719-0.83984-2.8789-3-4.3203-6.9609-4.0781-11.039 0.12109-4.1992 1.918-8.0391 4.918-10.801 3-2.7578 6.7188-4.0781 10.441-4.0781 4.1992 0 8.3984 1.6797 11.398 5.0391 5.7578 6.2383 5.3984 15.961-0.96094 21.719z"/>
    <path d="m281.1 237.54c0 5.5352-4.4883 10.023-10.023 10.023s-10.023-4.4883-10.023-10.023c0-5.5352 4.4883-10.02 10.023-10.02s10.023 4.4844 10.023 10.02"/>
    <path d="m316.11 401.35c0 11.848-9.6016 21.449-21.445 21.449s-21.449-9.6016-21.449-21.449c0-11.844 9.6055-21.445 21.449-21.445s21.445 9.6016 21.445 21.445"/>
    <path d="m247.35 447.59c0 5.5352-4.4844 10.02-10.02 10.02s-10.023-4.4844-10.023-10.02 4.4883-10.023 10.023-10.023 10.02 4.4883 10.02 10.023"/>
  </g>
</svg>