<?xml version="1.0" encoding="utf-8"?>
<svg width="700pt" height="700pt" version="1.1" viewBox="87.131 92.726 533.908 408.648" xmlns="http://www.w3.org/2000/svg">
  <g>
    <path d="m390.92 191.97c-4.1992-10.801-14.641-17.398-25.559-17.398-3.3594 0-6.7188 0.60156-9.9609 1.918-6.8398 2.6406-12.238 7.8008-15.121 14.52-3 6.7188-3.1211 14.281-0.48047 21 4.3203 10.801 14.641 17.52 25.68 17.52 3.2422 0 6.7188-0.60156 9.9609-1.9219 14.039-5.5195 21-21.477 15.48-35.637zm-19.922 24.477c-7.9219 3-16.922-0.83984-19.922-8.7578-1.5586-3.8398-1.4414-8.0391 0.12109-11.879 1.6797-3.7188 4.6797-6.6016 8.5195-8.1602 1.918-0.71875 3.8398-1.0781 5.6406-1.0781 6.2383 0 12 3.7188 14.398 9.8398 3.125 7.918-0.83594 16.918-8.7578 20.035z"/>
    <path d="m459.61 164.81c0 5.5352-4.4844 10.023-10.02 10.023-5.5352 0-10.023-4.4883-10.023-10.023s4.4883-10.02 10.023-10.02c5.5352 0 10.02 4.4844 10.02 10.02"/>
    <path d="m449.36 357.28c0 11.844-9.6016 21.445-21.445 21.445-11.848 0-21.449-9.6016-21.449-21.445s9.6016-21.445 21.449-21.445c11.844 0 21.445 9.6016 21.445 21.445"/>
    <path d="m344.39 422.32c0 5.5352-4.4883 10.023-10.023 10.023-5.5352 0-10.023-4.4883-10.023-10.023 0-5.5352 4.4883-10.023 10.023-10.023 5.5352 0 10.023 4.4883 10.023 10.023"/>
    <path d="m226.28 389.73-50.641 46.918c-5.6406-2.6406-10.559-6.3594-14.641-10.918l52.32-48.48c1.1992 0.96094 2.5195 1.6797 3.9609 2.2812 3.6016 1.4414 6.3594 4.3203 7.8008 7.918 0.35938 0.83984 0.71875 1.5625 1.1992 2.2812z"/>
    <path d="m301.88 343.29-35.281 18.602c-1.3203-3.6016-4.1992-6.6016-8.0391-8.0391-2.5195-1.082-4.6797-2.7617-6.1211-4.9219l35.52-18.602c1.4414 1.8008 3.2422 3.1211 5.5195 3.9609 3.6016 1.4414 6.4805 4.3203 7.8008 7.918 0.12109 0.36328 0.35938 0.72266 0.60156 1.082z"/>
    <path d="m586.64 175.77-27.48 66.121c-0.96094 2.3984-3 4.3203-5.3984 5.0391l-125.88 42.602-84.242 31.918c0-5.7617-3.4805-10.801-8.7578-12.961-0.96094-0.35938-1.8008-0.83984-2.6406-1.3203l3.7188-1.918 85.801-32.641 122.4-41.398 28.078-67.801c0.60156 0.96094 1.082 2.0391 1.4414 3 2.1602 5.3984 7.2031 9 12.961 9.3594z"/>
    <path d="m305.48 295.17c-1.8008 1.4414-3.2422 3.3594-4.1992 5.6406-1.3203 3.4805-4.1992 6.3594-7.8008 7.6797-0.12109 0-0.12109 0.12109-0.24219 0.12109l-35.398-46.199c-1.5586-1.9219-2.1602-4.4414-1.8008-6.8398l15.359-94.922c2.6406 3 6.4805 4.6797 10.68 4.6797 2.5195 0 4.9219-0.60156 7.082-1.8008l-14.762 91.078z"/>
    <path d="m225.92 344.25c-0.23828 0.60156-0.60156 1.1992-0.83984 1.8008-1.3203 3.4805-4.1992 6.3594-7.8008 7.6797-1.8008 0.71875-3.2383 1.6797-4.5586 2.8789l-67.801-59.52c3-5.3984 7.8008-9.6016 13.559-11.879h0.12109z"/>
    <path d="m173.96 456.69c-14.758 5.7578-26.52 17.641-32.281 32.398-0.71875 1.8008-2.2812 2.6406-3.8398 2.6406-1.5586 0-3.1211-0.83984-3.7188-2.6406-5.8789-14.762-17.758-26.641-32.52-32.398-3.4805-1.4414-3.4805-6.3594 0-7.6797 14.879-5.7617 26.641-17.52 32.52-32.281 0.60156-1.6797 2.1602-2.6406 3.7188-2.6406 1.5586 0 3.1211 0.96094 3.8398 2.6406 5.7617 14.762 17.52 26.641 32.281 32.281 3.4805 1.4375 3.4805 6.2383 0 7.6797z"/>
    <path d="m254.24 368.37c-6.6016 2.6406-12 8.0391-14.52 14.641-0.35938 0.83984-1.082 1.1992-1.8008 1.1992-0.60156 0-1.3203-0.35938-1.6797-1.1992-2.6406-6.6016-7.918-12-14.641-14.641-1.5586-0.60156-1.5586-2.7578 0-3.3594 6.7188-2.6406 12.121-7.9219 14.641-14.641 0.35938-0.71875 1.082-1.0781 1.6797-1.0781 0.71875 0 1.4414 0.35938 1.8008 1.1992 2.5195 6.6016 7.918 11.879 14.52 14.52 1.5586 0.59766 1.5586 2.7578 0 3.3594z"/>
    <path d="m330.44 323.13c-6.6016 2.6406-11.879 8.0391-14.52 14.641-0.24219 0.83984-0.96094 1.1992-1.6797 1.1992s-1.4414-0.35938-1.6797-1.1992c-2.6406-6.6016-8.0391-12-14.762-14.641-1.5586-0.60156-1.5586-2.7617 0.12109-3.3594 6.6016-2.6406 12-7.918 14.641-14.641 0.23828-0.71875 0.96094-1.082 1.6797-1.082s1.4414 0.35938 1.6797 1.082c2.6406 6.7188 7.918 12 14.52 14.641 1.6797 0.59766 1.6797 2.7578 0 3.3594z"/>
    <path d="m154.16 274.05c-10.199 3.9609-18.242 12.121-22.199 22.32-0.35938 1.1992-1.4414 1.8008-2.5195 1.8008-1.082 0-2.1602-0.60156-2.6406-1.8008-3.9609-10.199-12.121-18.359-22.32-22.32-2.3984-0.96094-2.3984-4.3203 0.12109-5.1602 10.078-3.9609 18.238-12 22.199-22.199 0.48047-1.1992 1.5586-1.8008 2.6406-1.8008 1.0781 0 2.1602 0.60156 2.5195 1.8008 3.9609 10.199 12 18.238 22.199 22.199 2.4023 0.83984 2.4023 4.1992 0 5.1602z"/>
    <path d="m306.8 129.33c-10.078 3.9609-18.121 12.121-22.078 22.199-0.48047 1.1992-1.5586 1.8008-2.6406 1.8008-1.0781 0-2.1602-0.60156-2.5195-1.8008-3.9609-10.082-12.121-18.242-22.32-22.199-2.3984-0.96094-2.3984-4.3203 0-5.2812 10.199-3.8398 18.359-12 22.32-22.078 0.35938-1.1992 1.4414-1.8008 2.5195-1.8008 1.082 0 2.1602 0.60156 2.6406 1.8008 3.9609 10.078 12 18.238 22.078 22.078 2.4023 0.96094 2.4023 4.3203 0 5.2812z"/>
    <path d="m612.2 139.77c-10.082 3.9609-18.242 12.121-22.082 22.199-0.48047 1.1992-1.5586 1.8008-2.6406 1.8008-1.082 0-2.1602-0.60156-2.6406-1.8008-3.9609-10.082-12.121-18.242-22.199-22.199-2.3984-0.96094-2.3984-4.3203 0-5.2812 10.082-3.8398 18.242-12 22.199-22.078 0.48047-1.1992 1.5586-1.8008 2.6406-1.8008 1.0781 0 2.1602 0.60156 2.6406 1.8008 3.8398 10.078 12 18.238 22.082 22.078 2.3984 0.96094 2.3984 4.3203 0 5.2812z"/>
  </g>
</svg>