<?xml version="1.0" encoding="utf-8"?>
<svg width="700pt" height="700pt" version="1.1" viewBox="79.033 76.056 548.879 399.783" xmlns="http://www.w3.org/2000/svg">
  <g>
    <path d="m400 374.23c-3.6016 1.3203-6.4805 4.0781-8.0391 7.918-0.23828 0.60156-0.48047 1.082-0.96094 1.6797l-15.719-37.082c2.5195-1.5586 4.5586-4.0781 5.7617-7.0781 0.60156-1.6797 1.4414-3.1211 2.3984-4.6797z"/>
    <path d="m402.04 237.55c0.60156 1.4414 1.3203 2.7617 2.1602 3.8398l-19.922 45.961c-1.3203-1.8008-2.3984-3.8398-3.2383-6-0.96094-2.5195-2.6406-4.6797-4.5586-6.1211l20.398-47.16c2.1602 2.8789 3.8398 6.1211 5.1602 9.4805z"/>
    <path d="m482.56 274.63c-1.3203 1.1992-2.2812 2.7617-3 4.5586-0.96094 2.2773-2.3984 4.1992-4.3203 5.6406l-40.199-53.52c2.0391-3.7188 4.6797-7.0781 7.6797-9.8398z"/>
    <path d="m583.25 368.11c-1.3203 3.1211-4.0781 5.7578-7.4414 6.9609-0.60156 0.23828-1.1992 0.60156-1.8008 0.96094l-67.559-57.602c1.4414-2.5195 3.8398-4.5586 6.6016-5.7617 1.1992-0.48047 2.2812-1.082 3.2383-1.6797z"/>
    <path d="m177.88 267.79-54.719 54.719c-3-1.4414-5.5195-4.082-6.7188-7.1992-0.24219-0.71875-0.60156-1.4414-0.96094-2.0391l53.879-54c3.4805 2.1602 6.3594 5.0391 8.5195 8.5195z"/>
    <path d="m294.16 192.31c0.96094 0.35938 1.8008 0.83984 2.6406 1.4414l-69.602 38.16c-1.1992-1.082-2.6406-1.9219-4.1992-2.5195-2.7578-1.082-5.3984-2.6406-7.6797-4.6797l71.398-39.121c1.5625 3 4.2031 5.4023 7.4414 6.7188z"/>
    <path d="m377.09 181.51c-0.24219 0.12109-0.48047 0.23828-0.71875 0.35938-4.5586 1.6797-7.918 5.2812-9.3594 9.7188l-24.238-5.6406c0.96094-2.0391 1.5586-4.1992 1.5586-6.6016 0-2.0391-0.48047-3.9609-1.1992-5.6406z"/>
    <path d="m281.2 358.63c-0.48047-0.12109-0.83984-0.12109-1.3203-0.12109-3.8398 0-7.4414 1.5586-9.9609 4.3203l-16.199-72.961-40.199-26.398c2.6406-2.7578 6-5.0391 9.6016-6.4805 0.48047-0.24219 0.96094-0.48047 1.4414-0.71875l37.801 24.84c1.3203 0.83984 2.2812 2.2812 2.6406 3.7188z"/>
    <path d="m274.72 416.59-23.641 15.48c-1.4414-1.8008-3.4805-3.3594-5.8789-4.1992-1.9219-0.71875-3.6016-1.6797-5.2812-2.8789l26.52-17.398c0.23828 0.35938 0.48047 0.71875 0.60156 1.1992 1.4414 3.5977 4.2031 6.3555 7.6797 7.7969z"/>
    <path d="m421.12 404.47c-6.6016 2.6406-11.879 7.9219-14.52 14.641-0.35938 0.83984-0.96094 1.1992-1.6797 1.1992s-1.4414-0.35938-1.8008-1.1992c-2.5195-6.7188-7.918-12-14.641-14.641-1.5586-0.60156-1.5586-2.8789 0-3.4805 6.7188-2.5195 12.121-7.918 14.641-14.52 0.35938-0.83984 1.082-1.1992 1.8008-1.1992s1.3203 0.35938 1.6797 1.1992c2.6406 6.7227 7.918 12 14.52 14.52 1.5586 0.60156 1.5586 2.8828 0 3.4805z"/>
    <path d="m331.12 181.15c-6.6016 2.6406-11.879 7.9219-14.52 14.641-0.24219 0.83984-0.96094 1.1992-1.6797 1.1992s-1.4414-0.35938-1.6797-1.1992c-2.6406-6.7188-8.0391-12-14.762-14.641-1.5586-0.60156-1.5586-2.8789 0.12109-3.4805 6.6016-2.5195 12-7.8008 14.641-14.52 0.24219-0.71875 0.96094-1.1992 1.6797-1.1992s1.4414 0.48047 1.6797 1.1992c2.6406 6.7188 7.918 12 14.52 14.52 1.6797 0.60156 1.6797 2.8828 0 3.4805z"/>
    <path d="m508.72 301.51c-6.7188 2.6406-12 8.0391-14.641 14.641-0.24219 0.83984-0.96094 1.1992-1.6797 1.1992s-1.4414-0.35937-1.6797-1.1992c-2.6406-6.6016-8.0391-12-14.641-14.641-1.5586-0.60156-1.5586-2.7617 0-3.3594 6.6016-2.6406 12-7.918 14.641-14.641 0.23828-0.71875 0.96094-1.082 1.6797-1.082s1.4414 0.35937 1.6797 1.1992c2.6406 6.6016 7.918 11.879 14.641 14.52 1.5625 0.60156 1.5625 2.7617 0 3.3633z"/>
    <path d="m296.2 389.71c-6.7188 2.6406-12 7.9219-14.641 14.641-0.23828 0.83984-0.96094 1.1992-1.6797 1.1992s-1.4414-0.35938-1.6797-1.1992c-2.6406-6.6016-8.0391-12-14.641-14.641-1.5586-0.60156-1.5586-2.7578 0-3.3594 6.6016-2.6406 12-7.9219 14.641-14.641 0.24219-0.71875 0.96094-1.1992 1.6797-1.1992s1.4414 0.48047 1.6797 1.1992c2.6406 6.7188 7.9219 12 14.641 14.641 1.5625 0.59766 1.5625 2.7578 0 3.3594z"/>
    <path d="m119.8 337.51c-6.6016 2.6406-12 8.0391-14.52 14.762-0.35938 0.71875-1.0781 1.082-1.6797 1.082-0.71875 0-1.4414-0.35938-1.8008-1.082-2.5195-6.7188-7.918-12.121-14.641-14.762-1.5586-0.60156-1.5586-2.7617 0-3.3594 6.7188-2.6406 12.121-7.918 14.641-14.52 0.35937-0.83984 1.082-1.1992 1.8008-1.1992 0.60156 0 1.3203 0.35938 1.6797 1.1992 2.5195 6.6016 7.9219 11.879 14.52 14.52 1.5586 0.59766 1.5586 2.7578 0 3.3594z"/>
    <path d="m240.88 444.19c-10.082 3.9609-18.121 12.121-22.082 22.32-0.48047 1.1992-1.5586 1.8008-2.6406 1.8008-1.082 0-2.1602-0.60156-2.5195-1.8008-4.082-10.199-12.121-18.359-22.32-22.32-2.3984-0.83984-2.3984-4.1992 0-5.1602 10.199-3.9609 18.359-12 22.32-22.078 0.35938-1.1992 1.4414-1.8008 2.5195-1.8008s2.1602 0.60156 2.6406 1.8008c3.9609 10.078 12 18.121 22.082 22.078 2.4023 0.96094 2.4023 4.3203 0 5.1602z"/>
    <path d="m218.68 245.83c-10.078 3.9609-18.121 12.121-22.078 22.199-0.48047 1.1992-1.5586 1.9219-2.6406 1.9219-1.0781 0-2.0391-0.60156-2.5195-1.9219-3.9609-10.078-12.121-18.238-22.32-22.199-2.3984-0.96094-2.3984-4.3203 0-5.2812 10.199-3.8398 18.359-12 22.32-22.082 0.48047-1.1992 1.4414-1.8008 2.5195-1.8008 1.082 0 2.1602 0.60156 2.6406 1.8008 3.9609 10.199 12 18.238 22.078 22.082 2.4023 0.96094 2.4023 4.3203 0 5.2812z"/>
    <path d="m391.96 313.03c-10.078 3.9609-18.238 12.121-22.078 22.32-0.48047 1.1992-1.5586 1.8008-2.6406 1.8008-1.0781 0-2.1602-0.60156-2.6406-1.8008-3.9609-10.199-12.121-18.359-22.199-22.32-2.5195-0.96094-2.3984-4.1992 0-5.1602 10.082-3.9609 18.242-12 22.199-22.199 0.48047-1.1992 1.5586-1.8008 2.6406-1.8008 1.082 0 2.1602 0.71875 2.6406 1.9219 3.8398 10.078 12 18.121 22.078 22.078 2.3984 0.96094 2.3984 4.1992 0 5.1602z"/>
    <path d="m453.04 200.71c-14.762 5.7617-26.52 17.641-32.281 32.398-0.60156 1.8008-2.1602 2.6406-3.7188 2.6406-1.5586 0-3.1211-0.83984-3.8398-2.6406-5.7617-14.762-17.641-26.641-32.52-32.398-3.4805-1.4414-3.4805-6.2383 0-7.6797 14.879-5.6406 26.762-17.52 32.52-32.281 0.71875-1.6797 2.2812-2.5195 3.8398-2.5195 1.5586 0 3.1211 0.83984 3.7188 2.6406 5.7617 14.762 17.52 26.52 32.281 32.16 3.4805 1.4375 3.4805 6.2383 0 7.6797z"/>
    <path d="m612.77 389.71c-6.6016 2.6406-11.879 7.9219-14.52 14.641-0.24219 0.83984-0.96094 1.1992-1.6797 1.1992s-1.4414-0.35938-1.6797-1.1992c-2.6406-6.6016-8.0391-12-14.762-14.641-1.5586-0.60156-1.5586-2.7578 0.12109-3.3594 6.6016-2.6406 12-7.9219 14.641-14.641 0.23828-0.71875 0.96094-1.1992 1.6797-1.1992s1.4414 0.48047 1.6797 1.1992c2.6406 6.7188 7.9219 12 14.52 14.641 1.6797 0.59766 1.6797 2.7578 0 3.3594z"/>
    <path d="m347.09 99.789c-2.7617-6.7188-8.0391-12-14.879-14.762-6.8398-2.8789-14.281-2.7578-21 0-6.7188 2.8789-12 8.1602-14.758 14.879-2.8789 6.8398-2.7617 14.281 0 21.121 2.8789 6.7188 8.1602 12 14.879 14.762 3.3594 1.3203 6.9609 2.0391 10.441 2.0391 3.6016 0 7.1992-0.71875 10.68-2.1602 13.914-5.7578 20.516-21.957 14.637-35.879zm-19.32 24.84c-12.359 5.1328-25.32-7.75-20.281-20.16 2.168-5.3398 8.5039-9.6016 14.281-9.6016 6.1602 0 11.977 3.9258 14.281 9.6016 3.2383 7.8008-0.48438 16.922-8.2812 20.16z"/>
    <path d="m229.57 153.16c0 5.5352-4.4883 10.023-10.023 10.023-5.5352 0-10.023-4.4883-10.023-10.023s4.4883-10.023 10.023-10.023c5.5352 0 10.023 4.4883 10.023 10.023"/>
    <path d="m494.04 401.89c0 11.844-9.6016 21.445-21.445 21.445s-21.445-9.6016-21.445-21.445c0-11.848 9.6016-21.449 21.445-21.449s21.445 9.6016 21.445 21.449"/>
    <path d="m387.2 457.33c0 5.5352-4.4883 10.023-10.023 10.023s-10.02-4.4883-10.02-10.023 4.4844-10.023 10.02-10.023 10.023 4.4883 10.023 10.023"/>
  </g>
</svg>