<?xml version="1.0" encoding="utf-8"?>
<svg width="700pt" height="700pt" version="1.1" viewBox="77.818 28.367 549.833 498.507" xmlns="http://www.w3.org/2000/svg">
  <g>
    <path d="m309.46 422.14c0 11.844-9.6016 21.445-21.445 21.445-11.848 0-21.449-9.6016-21.449-21.445 0-11.848 9.6016-21.449 21.449-21.449 11.844 0 21.445 9.6016 21.445 21.449"/>
    <path d="m524.89 145.54c-15.121 0-27.48 12.359-27.48 27.48 0 15.121 12.359 27.48 27.48 27.48 15.121 0 27.359-12.359 27.359-27.48 0-15.121-12.238-27.48-27.359-27.48zm0 42.957c-8.5195 0-15.48-6.9609-15.48-15.48s6.9609-15.48 15.48-15.48 15.359 6.9609 15.359 15.48c0 8.5234-6.8398 15.48-15.359 15.48z"/>
    <path d="m449.59 173.01c0 5.5352-4.4883 10.023-10.023 10.023-5.5352 0-10.023-4.4883-10.023-10.023 0-5.5352 4.4883-10.023 10.023-10.023 5.5352 0 10.023 4.4883 10.023 10.023"/>
    <path d="m197.95 320.8c0 5.5352-4.4883 10.023-10.023 10.023s-10.023-4.4883-10.023-10.023 4.4883-10.023 10.023-10.023 10.023 4.4883 10.023 10.023"/>
    <path d="m266.17 278.14c-1.4414 0.83984-2.8789 1.5586-4.4414 2.1602-3.1211 1.1992-5.6406 3.3594-7.3203 6.1211l-120-46.441c2.1602-1.8008 4.6797-3.2422 7.3203-4.3203 2.1602-0.83984 3.9609-2.0391 5.3984-3.6016z"/>
    <path d="m374.77 290.02c3.1211 1.1992 6 3 8.3984 5.2812l-25.199 14.641c-1.082 0.60156-2.2812 0.96094-3.4805 0.83984l-34.559-2.7617 0.12109-0.12109c4.9219-1.918 8.3984-6.1211 9.2383-11.16l24.242 1.918 17.879-10.441c1.0781 0.72656 2.1602 1.3281 3.3594 1.8047z"/>
    <path d="m451.8 343.78-33.238-40.199c1.8008-3.7188 4.4414-7.082 7.6797-9.6016l33.48 40.559c-0.48047 0.60156-0.83984 1.3203-1.082 2.0391-1.1992 3.2422-3.7188 5.7617-6.8398 7.2031z"/>
    <path d="m441.48 422.14 18.121 34.68c-0.71875 0.96094-1.3203 2.0391-1.8008 3.2383-1.3203 3.2422-3.1211 6.1211-5.5195 8.6406l-23.039-43.922c-0.96094-1.918-0.83984-4.0781 0.12109-5.8789l26.52-45.48c1.1992 1.1992 2.1602 2.7578 2.7578 4.4414 1.082 2.6406 2.7617 4.8008 4.9219 6.2383z"/>
    <path d="m305.41 143.5c-2.7617 1.9219-5.7617 3.6016-9 4.8008-1.082 0.35938-2.0391 0.96094-3 1.5586l-96.238-65.52c2.7578-3 6.1211-5.2812 9.9609-6.8398 0.23828-0.12109 0.60156-0.23828 0.83984-0.35938z"/>
    <path d="m393.01 242.5c-1.1992 1.3203-2.1602 2.8789-2.8789 4.6797-1.082 2.7578-2.5195 5.2812-4.3203 7.4414l-15.238-29.281-18.242-21.961c1.5586-3.9609 3.7188-7.6797 6.3594-11.039l21.48 25.801c0.24219 0.35938 0.48047 0.71875 0.71875 1.0781z"/>
    <path d="m459.73 334.54c-0.48047 0.60156-0.83984 1.3203-1.082 2.0391-1.1992 3.2422-3.7188 5.7617-6.8398 7.1992l-33.238-40.199c1.8008-3.7188 4.4414-7.082 7.6797-9.6016z"/>
    <path d="m571.57 358.78c-2.0391 3.4805-4.9219 6.3594-8.2812 8.6406l-17.281-14.16-45.242 6.7188c0.12109-0.96094 0.24219-1.9219 0.24219-2.8789 0-3.3594-1.1992-6.4805-3.2422-8.8789l49.082-7.3203c1.6797-0.23828 3.3594 0.24219 4.6797 1.3203z"/>
    <path d="m202.69 66.34c-10.082 3.9609-18.121 12.121-22.082 22.32-0.48047 1.1992-1.5586 1.8008-2.6406 1.8008-1.082 0-2.1602-0.60156-2.6406-1.8008-3.9609-10.199-12.121-18.359-22.199-22.32-2.3984-0.83984-2.3984-4.1992 0-5.1602 10.199-3.9609 18.238-12 22.199-22.078 0.48047-1.1992 1.5586-1.8008 2.6406-1.8008 1.0781 0 2.1602 0.60156 2.6406 1.8008 3.8398 10.078 12 18.121 22.082 22.078 2.3984 0.96094 2.3984 4.2031 0 5.1602z"/>
    <path d="m137.41 224.5c-10.082 3.9609-18.242 12.121-22.082 22.32-0.48047 1.1992-1.5586 1.8008-2.6406 1.8008-1.082 0-2.1602-0.60156-2.6406-1.8008-3.9609-10.199-12.121-18.359-22.199-22.32-2.3984-0.96094-2.3984-4.3203 0-5.1602 10.078-3.9609 18.238-12 22.199-22.199 0.48047-1.1992 1.5586-1.8008 2.6406-1.8008 1.0781 0 2.1602 0.60156 2.6406 1.8008 3.8398 10.199 12 18.242 22.082 22.199 2.3984 0.83984 2.3984 4.2031 0 5.1602z"/>
    <path d="m373.09 167.14c-14.758 5.7617-26.52 17.641-32.281 32.398-0.60156 1.8008-2.1602 2.6406-3.7188 2.6406-1.5586 0-3.1211-0.83984-3.8398-2.6406-5.7617-14.762-17.641-26.641-32.52-32.398-3.4805-1.4414-3.4805-6.2422 0.12109-7.6797 14.762-5.6406 26.641-17.52 32.398-32.281 0.71875-1.6797 2.2812-2.5195 3.8398-2.5195 1.5586 0 3.1211 0.83984 3.7188 2.6406 5.7617 14.758 17.52 26.52 32.281 32.16 3.4805 1.4414 3.6016 6.2422 0 7.6797z"/>
    <path d="m315.73 296.74c-10.199 3.9609-18.242 12.121-22.199 22.199-0.48047 1.1992-1.4414 1.8008-2.5195 1.8008-1.082 0-2.1602-0.60156-2.6406-1.8008-3.9609-10.078-12.121-18.238-22.32-22.199-2.3984-0.96094-2.3984-4.3203 0-5.2812 10.199-3.8398 18.359-12 22.32-22.078 0.48047-1.1992 1.5586-1.8008 2.6406-1.8008 1.0781 0 2.0391 0.60156 2.5195 1.8008 3.9609 10.078 12 18.238 22.199 22.078 2.3984 0.96094 2.3984 4.3203 0 5.2812z"/>
    <path d="m428.64 278.86c-10.078 3.9609-18.121 12.121-22.078 22.32-0.48047 1.1992-1.5586 1.8008-2.6406 1.8008-1.0781 0-2.1602-0.60156-2.6406-1.8008-3.9609-10.199-12-18.359-22.199-22.32-2.3984-0.96094-2.3984-4.1992 0-5.1602 10.199-3.9609 18.238-12 22.199-22.199 0.48047-1.1992 1.5586-1.8008 2.6406-1.8008s2.1602 0.60156 2.6406 1.8008c3.9609 10.199 12 18.238 22.078 22.199 2.4023 0.95703 2.4023 4.1992 0 5.1602z"/>
    <path d="m496.32 491.74c-10.078 3.9609-18.121 12.121-22.078 22.32-0.48047 1.1992-1.5586 1.8008-2.6406 1.8008-1.0781 0-2.1602-0.60156-2.6406-1.8008-3.9609-10.199-12-18.359-22.199-22.32-2.3984-0.83984-2.3984-4.1992 0-5.1602 10.199-3.9609 18.242-12 22.199-22.082 0.48047-1.1992 1.5586-1.8008 2.6406-1.8008s2.1602 0.60156 2.6406 1.8008c3.9609 10.082 12 18.121 22.078 22.082 2.4023 0.96094 2.4023 4.3203 0 5.1602z"/>
    <path d="m487.8 358.9c-6.6016 2.6406-11.879 7.9219-14.52 14.641-0.24219 0.71875-0.96094 1.1992-1.6797 1.1992s-1.4414-0.35938-1.6797-1.1992c-2.6406-6.7188-8.0391-12-14.641-14.641-1.6797-0.60156-1.6797-2.8789 0-3.4805 6.6016-2.5195 12-7.9219 14.641-14.52 0.23828-0.83984 0.96094-1.1992 1.6797-1.1992s1.4414 0.35938 1.6797 1.1992c2.6406 6.6016 7.918 12 14.52 14.52 1.6797 0.59766 1.6797 2.8789 0 3.4805z"/>
    <path d="m612.25 386.38c-10.199 3.9609-18.242 12.121-22.199 22.199-0.48047 1.1992-1.5586 1.8008-2.5195 1.8008-1.082 0-2.1602-0.60156-2.6406-1.8008-3.9609-10.082-12.121-18.242-22.32-22.199-2.3984-0.96094-2.3984-4.3203 0-5.2812 10.199-3.8398 18.359-12 22.32-22.082 0.48047-1.1992 1.5586-1.8008 2.6406-1.8008 0.96094 0 2.0391 0.60156 2.5195 1.8008 3.9609 10.082 12 18.242 22.199 22.082 2.3984 0.96094 2.3984 4.3203 0 5.2812z"/>
  </g>
</svg>